<svg xmlns="http://www.w3.org/2000/svg" xmlns:xlink="http://www.w3.org/1999/xlink" viewBox="0 0 1740.64 1261.34"><defs><style>.cls-1,.cls-14{fill:none;}.cls-2{clip-path:url(#clip-path);}.cls-3{fill:#dbdbdb;}.cls-4{fill:#00aab7;}.cls-5{fill:#7cbc73;}.cls-6{fill:#d8c8d3;}.cls-7{fill:#aec93d;}.cls-8{fill:#df1b75;}.cls-9{fill:#df205a;}.cls-10{fill:#fef4f1;}.cls-11{fill:#fff;}.cls-12{fill:#f7f8e2;}.cls-13{fill:#715768;}.cls-14{stroke:#adadad;stroke-miterlimit:10;stroke-width:2px;stroke-dasharray:6 8;}.cls-15{opacity:0.18;}</style><clipPath id="clip-path"><rect class="cls-1" x="478.97" y="96.05" width="1261.34" height="677.08"/></clipPath></defs><title>fin2</title><g id="Capa_2" data-name="Capa 2"><g id="Capa_1-2" data-name="Capa 1"><g class="cls-2"><rect class="cls-3" x="478.97" width="1261.34" height="1261.34"/><path class="cls-4" d="M1462.56,790.6,1480.15,998l260.15-15.76V820.71s-36.19-6.36-103.93-4.36C1574.42,818.17,1462.56,790.6,1462.56,790.6Z"/><polygon class="cls-5" points="1268.48 16.31 1365.96 6.76 1381.11 61.98 1300.11 100 1268.48 16.31"/><polygon class="cls-5" points="914.87 463.51 974.82 591.25 1068.64 591.25 1041.84 493.5 996.02 411.77 914.87 463.51"/><polyline class="cls-6" points="1436.18 198.15 1471.41 325.35 1709.61 277.92 1686.24 168.79 1654.24 97.96 1424.4 198.43"/><polyline class="cls-7" points="701.45 428.35 736.68 555.54 906.85 474.29 876.29 418.81 824.79 349.47 652.4 381.56"/><g id="Calles_anchas" data-name="Calles anchas"><path class="cls-8" d="M744.39,87.31l-3.62.09c0-1.22,0-2.43-.06-3.65l3.61,0C744.33,84.91,744.35,86.11,744.39,87.31Z"/><path class="cls-8" d="M744.43,76.2l-3.62-.14c0-.72.06-1.45.1-2.17.08-1.72.17-3.54.25-5.44l3.61.16c-.08,1.91-.17,3.73-.25,5.45C744.48,74.77,744.46,75.48,744.43,76.2ZM745.1,61l-3.62-.15q.15-3.65.3-7.6l3.61.14Q745.24,57.34,745.1,61Zm.56-15.22-3.61-.12.26-7.61,3.61.12Z"/><rect class="cls-8" x="742.6" y="26.9" width="3.62" height="3.62" transform="translate(692.24 771.84) rotate(-88.19)"/><path class="cls-8" d="M821.61,333.55l-1.73-3.16,3.16-1.76,1.75,3.19Z"/><path class="cls-8" d="M816.5,324.46c-1.13-1.94-2.19-3.71-3.18-5.39l-.3-.49,3.11-1.85.3.49c1,1.69,2.06,3.47,3.19,5.42Zm-7-11.84c-1.25-2.21-2.29-4.16-3.26-6.14l3.25-1.59c.94,1.91,1.94,3.8,3.16,5.95Zm-6.12-12.49c-.84-2-1.65-4.16-2.47-6.48l3.41-1.21c.8,2.27,1.59,4.33,2.41,6.32Zm-4.66-13c-.64-2-1.3-4.22-2-6.6l3.47-1c.68,2.35,1.34,4.51,2,6.52Zm-3.86-13.22c-.57-2.09-1.16-4.3-1.77-6.65l3.5-.91c.61,2.33,1.19,4.53,1.76,6.6Zm-4-12.85-2.62-6.33,3.34-1.39c.9,2.17,1.78,4.29,2.62,6.34Zm-5.26-12.67L783,242l3.34-1.38L789,247Zm-5.24-12.69q-1.29-3.14-2.59-6.36l3.35-1.36q1.3,3.23,2.59,6.35Z"/><polygon class="cls-8" points="775.19 222.84 773.86 219.47 777.22 218.15 778.55 221.51 775.19 222.84"/><path class="cls-8" d="M896.46,473.86l-3.59.43s-.15-1.2-.59-3.42l3.55-.7C896.3,472.54,896.46,473.81,896.46,473.86Z"/><path class="cls-8" d="M890.93,465c-.44-1.74-1-3.71-1.61-5.89l3.47-1q1,3.36,1.65,6Z"/><path class="cls-8" d="M887.49,453.21c-.37-1.09-.75-2.23-1.16-3.4l3.41-1.19c.42,1.19.81,2.34,1.18,3.46Z"/></g><polygon class="cls-9" points="1588.78 217.81 1575.98 218.11 1575.68 205.31 1556.47 205.76 1556.77 218.57 1543.97 218.87 1544.42 238.07 1557.23 237.77 1557.53 250.58 1576.74 250.12 1576.43 237.32 1589.24 237.02 1588.78 217.81"/><path class="cls-10" d="M1740.3,57.76l-81.93,29.47L1615.12,0h-43.55c-11.38,5.31-25.52,12.06-42.31,20.23-26.75,13-53.88,26.49-68,33.53a6.76,6.76,0,0,0-1.88.29l-46.9,14.78-23.7,4.31a236.12,236.12,0,0,1-6.25-23.1c-1.59-7.87-3.39-15.29-5.13-22.47-2.71-11.22-4.72-20.27-5.64-27.57h-14.56c0,.36.06.71.1,1.07l-31.18,4.35L1326,0h-12.67l.17,7.19-28.76,4c-1.14-3.69-2.27-7.44-3.4-11.2h-30.19q3.24,11.15,6.59,21.93a6.25,6.25,0,0,0-3.72-1.21l-103.45.44a6.3,6.3,0,0,0-4.83,2.23,6.16,6.16,0,0,0-1.41,5.06l8.48,49.25c-10.25,0-21.46.07-33,.32l-.31-13.32,21.45-1.36a6.33,6.33,0,1,0-.8-12.63l-38.37,2.42a6.33,6.33,0,0,0,.21,12.65l4.87.15.3,12.42c-48.48,1.55-81.86,5.74-99.29,12.48l-.69.25-48-23.41,22.47-45a294.28,294.28,0,0,0,35.76,4.11c80.35,3.71,97.55,2.79,102.24-5.47,1.76-3.09,4.15-11.65,5.06-21.28H1112c-.62,6-1.8,11.5-2.93,14.17-6.25,2.55-33.12,2.2-58.7,1.3L1051.39,0h-14.5l-1,14.9c-6.5-.27-12.61-.55-17.9-.8a277.29,277.29,0,0,1-32.4-3.62c.57-3,1.18-6.65,1.67-10.48H974.41c-.36,2.68-.8,5.44-1.31,8.21C961.14,5.85,949.29,3,938.18,0h-43.5a629.64,629.64,0,0,0,74,20.21L947.78,62.12,880.4,29.25,881.12,0h-9l-.7,27.86c-14.3,0-62-.14-112.45-.3.27-8.72.53-18,.79-27.56h-29c-.26,9.57-.53,18.79-.8,27.46-22.34-.08-44.07-.16-62.56-.25L672.25,0H659.39l-4.83,27.14c-20.11-.11-34.63-.23-38.94-.35-11.08-.31-21.71,3.52-29.88,7.66C581.59,24.1,575.33,13.13,566.3,0H530.62c15,19.88,23.55,33.45,28.27,45.45,7.5,19,5.41,36,1.24,69.72-.55,4.46-1.13,9.17-1.72,14.19-6.3,53-.46,91.62,5.39,114.34L479,250.25V263l75.55-5.83a8.1,8.1,0,0,0,.27,1.44l11,37.82-20.32,3.88-.28.06-34.31,6.55L487,268a8.11,8.11,0,0,0-8-3.8V286l20.93,34.16a8.15,8.15,0,0,0,8.46,3.74l33.27-6.36,13.16,34.61-28.92,15.27a8.14,8.14,0,1,0,7.6,14.4l35.29-18.63a8.15,8.15,0,0,0,3.81-10.1l-14.7-38.65,12.43-2.37,21.15,73-9.38,2.82a8.15,8.15,0,0,0-4.75,11.8l104.34,185c-1.95,1.22-3.9,2.44-5.89,3.73q-9.27,6-19.21,12.63L561.47,467.3a8.15,8.15,0,0,0-9.8-2.78l-56.48,23.92c-5.11-5.48-10.51-11.44-16.22-18v24.38c1.07,1.18,2.16,2.37,3.21,3.5L479,502.07v24.87l14.47-16.71c17.4,17.92,30.88,29.85,41,38.82,15.35,13.59,20.22,18.19,20.37,24.48l.19,8.24c-17.68,4.77-47.52,20.31-76,37.49v34.19c31.65-20,69.16-41.05,85.09-44.13a370.35,370.35,0,0,1,32.33,31.16c-40.61,26-84.59,52.24-117.42,64.19v74.68c15.94,42.87,40.67,125.76,50.19,178.68a.44.44,0,0,0,0,.1L508.72,960,479,803v87.45l13.46,71.08L479,962.74v16.35l16.51-1.52,18.4,97.14a8.17,8.17,0,0,0,7.25,6.59l11.82,1.08c2.75,16.87,7.58,32.41,15.9,41.28,2.46,2.62,4.86,5,7.2,7.2-24.36,4.74-50.66,14.91-76.58,24.94l-.5.19v31q5.49-2.1,10.95-4.22c52.25-20.21,101.6-39.31,123.79-12.4,6.13,7.44,12.34,14.64,18.52,21.6-13,32.6-12.43,57.63-11,69.35h29.29v0c-.23-1-3.6-15.68,2.3-39.45a8.11,8.11,0,0,0,7.1,2.31,7.56,7.56,0,0,0,1.45-.38l.43-.16c14.61,14.9,28.11,27.7,39.08,37.71h43.89c-6-5-27-22.93-53-48.65l21-7.65a8.14,8.14,0,1,0-5.58-15.29l-28,10.21q-6.24-6.42-12.67-13.32c2.74-5.2,5.88-10.6,9.52-16.19,3.5-5.36,7.79-11.2,11.94-16.84,6.54-8.89,12.72-17.28,17-25.21.56-1,1.11-2.08,1.64-3.12a564.44,564.44,0,0,0,72.66-11.81l39,147.87h16.84l-40.1-151.91q7.77-2.17,15.24-4.64l46.62,156.55h17l-48.3-162.17A159,159,0,0,0,848.23,1088c20.93-12.72,47.11-21,80.36-28l17.32,55.9.06.17L982.2,1233l-6.22,2.73c-.34.15-.68.31-1,.49q-27.5,14.71-52.27,25.1h67c7.49-3.29,33-14.51,57-25.3,4.2,12.94,6.94,21.38,7.51,23.12a14.49,14.49,0,0,0,.9,2.16v0h35a69.4,69.4,0,0,1-8.72-12.32l-8.15-25.07c2.95-1.37,5.7-2.66,8.15-3.83,29.92-14.28,63.4-21.64,101.69-22.33l2.7,63.55h120.76c27.84-4.61,51-9.25,56.15-10.86,19.52-6.08,261.17-42.56,279.92-40.15a8.14,8.14,0,0,0,6.16-15c-3.38-1.65-9.67-4.72-145.06,15.34-62.51,9.26-136,21.24-145.86,24.29-17.06,5.32-127.37,23.49-156,21.42l-2.48-58.45c4.07.12,8.17.29,12.35.54,12,.75,25.49,1.06,39.53,1l1.25,40.88a8.13,8.13,0,0,0,8.38,7.89,8.33,8.33,0,0,0,1.12-.11,8.13,8.13,0,0,0,6.77-8.27l-1.23-40.52c57.64-.88,119-5.92,126.41-6.55,26.69-.17,79.72-5.34,131.16-13.39l.21,0,.12,0c32-5,63.37-11.14,87.38-17.87a575.9,575.9,0,0,1,127.54-20.21v-29A598.13,598.13,0,0,0,1605,1133.63c-19.54,5.48-44.87,10.63-71.52,15.09-6.46-24.19-21.09-80.3-34.49-141.32,32.75-.92,69.77-3.92,116.07-9,34-3.73,79.15-5.28,125.29-5.62v-29c-46.92.36-93.11,2-128.45,5.85-48.06,5.29-85.78,8.27-119.06,9-5.43-26.26-10.37-52.63-14.12-77.07-4.39-28.68-9.3-62.73-14.34-98.36a180.52,180.52,0,0,1,58.4,4c20,4.83,66.23,10.6,110,13.72,28.33,2,76.87,4.42,107.61,0V808.1c-51.75,8.16-178.26-4.51-214.6-13.29a192,192,0,0,0-63.14-4.21c-2.48-17.6-5-35.46-7.46-53.14l15-.36a7.23,7.23,0,0,0,7.06-7.13l.6-40.84c4.33,1.15,9.28,1.35,13.76-1.12,6.48-3.57,9.49-11.24,8.94-22.78-.75-15.81-.93-25.31-1-30.59l22.2-3.77a7.24,7.24,0,0,0,5.88-8.53c0-.1-.46-2.41-1.3-7,9.39.29,18.87.63,28.38,1l-2.3,11.66a4.52,4.52,0,1,0,8.87,1.75l2.57-13c8.19.36,16.38.77,24.52,1.22l.48,25.19a4.52,4.52,0,0,0,4.6,4.44,5.05,5.05,0,0,0,.68-.07,4.51,4.51,0,0,0,3.76-4.54l-.46-24.5c6.75.4,13.47.84,20.12,1.3l.55,23.33a6.33,6.33,0,0,0,6.48,6.18,5.5,5.5,0,0,0,.91-.08,6.35,6.35,0,0,0,5.27-6.4l-.53-22.08q6.28.5,12.45,1l-1.07,20.05a6.33,6.33,0,0,0,12.64.68l1-19.57q9.19.9,18,1.91l-4.09,16.29a6.33,6.33,0,0,0,6.29,7.87l17.32-.41-7.56,115a6.33,6.33,0,0,0,5.9,6.73,6.53,6.53,0,0,0,1.47-.08,6.33,6.33,0,0,0,5.26-5.82l8-121.89a6.34,6.34,0,0,0-6.47-6.75l-15.92.38,2.44-9.77c16,2.06,30.78,4.45,43.78,7.23q5.34,1.14,10.59,2.18V617.33l-4.13-.84a210.4,210.4,0,0,0,3.06-26.29c.51-8.05.77-16.77.79-26.1l.28,0V551.41l-.39,0c-.51-26.9-2.79-58.41-6.84-94.22a8.14,8.14,0,0,0-.33-1.48,8.39,8.39,0,0,0,.1-1.51l-.95-26.47,8.41.25V411.66l-10.66-.32q-1.32-15.64-2.83-30.62c3.69.13,8.26.2,13.49.22V364.7c-6.46,0-11.65-.1-15.19-.29q-1.54-14.37-3.23-28l18.42.41V322.33l-20.25-.45q-2.49-19.22-5.16-36.89c4.59-.2,13.66-.57,25.41-.86V269.62c-13.56.34-23.63.79-27.62,1-6.57-41.57-13.48-76.08-19.43-102.56l47-20.28V134l-49.93,21.53c-5.33-22.66-9.57-37.88-11.6-44.85,20.79-7.47,41.48-14.92,61.53-22.14Zm-1252,383.41a8.15,8.15,0,0,0,6.3-.32l75.53-36.31A8.14,8.14,0,0,0,563,389.87L495,422.59c-2.73-5.93-6.68-14.47-11-23.63l27.73-12.78a8.14,8.14,0,0,0,3.78-11.2L479,306v34.77L497.1,375,479,383.36v43.38l4.66,10.16A8.13,8.13,0,0,0,488.26,441.17Zm978-375.74c13.89-6.93,41.41-20.62,68.54-33.81,27.54-13.39,47.9-23,60.49-28.5a6.2,6.2,0,0,0,2.33-1.78L1643,92.78l-68.28,24.55-48.82-39.22-25.18-14.68a6.34,6.34,0,0,0-6.76-.44c-12.41,6.77-25.84,10.24-28.1,8.35C1465.8,71.32,1465.07,69.91,1466.25,65.43ZM1453,71.55a13.3,13.3,0,0,0,4.55,9.39c5.39,4.61,14.23,4.62,27,0a118.65,118.65,0,0,0,11.79-5l63.91,46.55c-58.66,21.07-108.77,39-134.44,48.16-8.08-19.51-16.21-39.67-23.28-58.38,13.35-9.89,24.56-19.45,33.35-27C1442.26,79.86,1449.33,73.82,1453,71.55Zm-139.42,686h-.18l-30.39.72-.88-37.54c0-.07,0-.14,0-.21l-1-43.94,73.61,12.11a8.09,8.09,0,0,0,6.75-2,8.17,8.17,0,0,0,2.71-6.48l-3.38-66.67h.59l4.62,0,14.13,0-11.29,143-3.16-.21c-.25,0-.5,0-.75,0Zm6.29,217.57c-9.56,1.11-20.2,2.36-31.64,3.73l-4.83-204.31,22.69-.53ZM795.22,985.93l3.39,12.68-4.25,1.7c-35.66,14.34-54.43,11.91-63.89,7.34-7.6-3.66-10.32-9.41-11-11.2,1.5-2.26,9.17-10.81,41.9-18.59,52-12.37,142.32-45.42,174.49-57.44,5.86,10.4,11.25,20.15,15.75,28.72-27.3,7.22-82.55,22.73-137.72,43.56l-2.93-11a8.14,8.14,0,1,0-15.73,4.21Zm462.63-700.4a6.33,6.33,0,0,0,3.51,12.08,7.13,7.13,0,0,0,1.1-.29c3.36-1.2,33.15-11.95,48.49-21.24a6.33,6.33,0,1,0-6.56-10.83c-3.09,1.87-6.9,3.84-11,5.78l-8.47-17.77c18.08-7.28,35.5-14,51.67-20.16,6.65,23.1,14,56.39,21.39,93.46l-10.87,1.63c-5.09.3-54.82,3.66-90.3,21.25-20.82,10.33-48.12,12.8-72.5,12.66a7.83,7.83,0,0,0-7.16-.11c-12.68-.33-24.26-1.25-33.28-2-5-.4-9.3-.75-12.85-.93-14-.71-23.68,3.25-30,7.48a118.19,118.19,0,0,0-8.17-20.66c51.12-31.81,118.71-62.67,180.31-87.88l8.36,17.53-23.69,10Zm49.36,303.94-10.74-109.2,24.57-3.71,22.24,113.31.26,5-37-1.31A8.16,8.16,0,0,0,1307.21,589.47ZM1295,465.67l-11-111.47c4.07-1.28,8.19-2.42,12.26-3.44l21.86,111.32Zm42.11,8.46,22-3.32.1,0a7.48,7.48,0,0,0,4.66-3.22,7.79,7.79,0,0,0,1.16-5.78l-20.78-110.11a7.24,7.24,0,1,0-14.22,2.74l19.41,102.81-15.21,2.36-22-112.3a314.93,314.93,0,0,1,36-4.67c.23,0,.46,0,.69-.07l11.85-1.78c9.09,46.69,18.09,97.85,25.77,141.47,3.2,18.22,6.2,35.22,8.89,50.17,2.91,16.17,6.41,38.31,10.12,63-15.88,0-29.39,0-39.65.06l-4.44,0-1.61-.06-.35-6.86c0-.25,0-.51-.06-.77h0v0a4.5,4.5,0,0,0-.11-.64ZM1049.3,755.36a8.15,8.15,0,0,0,11.5-.54l15.13-16.63,6.81,3c-.53,1.27-1,2.49-1.55,3.69-1.56,3.7-3,7.19-4.31,10.5-10.46,27.17-1.37,80.38-.55,85l.63,5.23-27.71,8.59-23.54-252.4,76,2.68c4.65,60.43-4,96.6-13,121.55l-11.61-5.1a8.12,8.12,0,0,0-9.29,2l-19.07,21A8.14,8.14,0,0,0,1049.3,755.36Zm-43.89-217.52a8.14,8.14,0,0,0-11-3.46l-28.88,15L928,471.91c19.9-14.56,41.8-31.2,66.08-50.38l36.58,59.13,18.49,61.76c0,.09,0,.18.08.27L1061.88,585l-80.48-2.84-8.75-18L1002,548.82A8.14,8.14,0,0,0,1005.41,537.84Zm-60.9,5.51L963,581.5l-66.4-2.34Zm-68.62,31-23.83-50.42c18.4-11.61,39-25.42,62.53-42.28l22.69,46.82Zm242.24,30.75,55.06,1.94L1182,721.52l-76.94,7.4C1114.2,702.9,1122.57,665.59,1118.13,605.06Zm-39.08-19.48-11.49-38.37,38-4.26,8.68,43.87-4.37-.15a6.78,6.78,0,0,0-.78,0Zm51.9,1.83-9.15-46.28,27.66-3.11.24,0,40-4.5,5.87,55.56a6.39,6.39,0,0,0,.13.63Zm22.85-66.26c-9.47-22.48-44.37-106.48-47.76-131.08q-.57-4.06-1.27-7.81c2.46-2.78,10.06-9.5,25.52-8.71,3.35.18,7.56.51,12.44.9,8.38.67,18.86,1.5,30.41,1.9l14.89,141Zm-47.36-74.88c10.74,29.15,23.84,60.91,30.49,76.78l-74.12,8.31L1045.92,475a7.65,7.65,0,0,0-.34-.95ZM1037,460l-30.12-48.69q20.62-16.5,43.52-35.42a350.24,350.24,0,0,1,28.69-21.13c3.79,7.71,8.39,20,10.81,37.52,1.16,8.39,5.42,22.48,11,38.59Zm55.06,301.19c1.18-3.06,2.6-6.44,4.11-10,.72-1.71,1.47-3.46,2.23-5.29l86.26-8.3,5.57,48.4-102,10.68C1087.88,783.32,1088.69,770,1092.07,761.21Zm97.49-153.63,32.71,1.15,7.33,108.2-30.83,3a8.2,8.2,0,0,0-.73-1.45Zm22-17.33a8,8,0,0,0,.21-2.9l-22.26-210.79a231.86,231.86,0,0,0,43.19-4.1l29.88,219.59Zm51.65,19.92,1.34,56.84c0,.12,0,.23,0,.35l1.09,46.1-19.87,1.91-7.18-106.07Zm-.71-139.47L1248.6,368.33a109.64,109.64,0,0,0,14.65-5.92c1.65-.82,3.34-1.59,5-2.34l10.63,108.09ZM1091.46,312.94l-32.36-55.29c22.78-15,52.83-36,83.81-58.12l42.15,65C1152.19,279.8,1120,296.12,1091.46,312.94Zm-13.93,8.44A423.81,423.81,0,0,0,1032,353.61c-50.59,41.85-92.28,74.12-127.43,99.56-5.6-18.49-17.85-49.25-44.19-87.54q-5.64-8.2-10.55-16.09l175.08-71.13a4.1,4.1,0,0,0,.48-.21c4.65-2.25,11.51-6.29,20.07-11.69Zm-59-57.94-9.9,4-18.77-74.54,30.25-11,19.56,69C1030.51,256.77,1023.24,261.11,1018.49,263.44Zm-22.13,9-155.05,63c-6.81-11.86-12.37-22.83-16.85-32.51l89.16-29.82,75-25.59Zm-47.74-24.67c-1.55-2.82-3.82-8.14-5.61-17.28-1.21-6.22-2.51-12.78-3.85-19.55l30.35-10.64,8.34-3,9.4,37.31Zm16.64-59.4-28.61,10c-2.5-12.47-5.1-25.28-7.62-37.6l24.17-9.41,20.08,34.06ZM930.59,232.9a77.31,77.31,0,0,0,5.92,19l-27,9.2L819.3,291.27c-7.78-18.39-10.85-29.85-10.91-30.07a15,15,0,0,0-.6-1.83L807,257.3l120.14-42.13C928.31,221.29,929.48,227.25,930.59,232.9ZM802.1,245.58c-.21-.52-.42-1-.64-1.55-5.77-13.89-12.46-30-18.86-47.22l134.32-32.05c2.54,12.45,5.15,25.35,7.66,37.87Zm-23.83-60.76c-10.34-29.48-19.13-61.54-20.93-91.45l144.83-.07c2,9.74,6.77,32.54,12.21,59.05Zm-3.53,70.32c2.11,5.08,4.1,9.87,5.9,14.3,1.59,5.75,10,33.92,30.86,72l-53.58,9.67-.52.1-94.06,17c-34.9-60.72-61.12-106-65.59-113.69a95.32,95.32,0,0,1-3.29-9l167.79-21C766.58,235.52,770.85,245.8,774.74,255.14ZM754.53,368.31l50.18,101.24a8.13,8.13,0,0,0,8.64,4.42,8,8,0,0,0,2.27-.74,8.15,8.15,0,0,0,3.68-10.91l-48.1-97,48.89-8.83c4.9,8.21,10.35,16.76,16.4,25.56,30.54,44.39,40.16,77.16,42.86,89-51,35.36-86.84,55.19-117,70.63C731.61,487.39,699.56,431.32,672,383.22Zm82.05,165.16,27.29,57.74a9,9,0,0,0,7.86,5.17l31.33,1.11a7.8,7.8,0,0,0-2,.83l-79.64,48.84c-13.77-24.88-29-52.12-44.9-80.28C794.12,557.89,813.55,547.44,836.58,533.47ZM862,641.41l6.11,9.13a8.14,8.14,0,0,0,13.53-9.06l-5.75-8.59,33.73-20.69A8.14,8.14,0,0,0,912.29,601a8,8,0,0,0-4.12-3.34l56.39,2L848,695.51c-5.72-10.57-12-22-18.63-34.08Zm-30.25,85c9.53,17.87,16.9,32.2,21.32,41.68,18.66,39.94,44,84.26,66.34,123.36.65,1.15,1.31,2.29,2,3.43-17.68,6.56-48,17.63-79.83,28.43l-4.73-17.69L884,891a8.14,8.14,0,0,0,4.85-11.41L826.19,754.47a8.15,8.15,0,0,0-11-3.61c-.71.37-9,4.62-20.28,10.84l-7-13.54C805.21,739.22,821.9,731.14,831.74,726.45Zm-10.5,184.07,4.82,18c-26,8.6-51.78,16.51-71.39,21.17-5.39,1.28-10.39,2.66-15.08,4.1l-2.5-17Zm-86.55,9.94-3.14-21.38,80.29-23.7,5.19,19.4ZM823.24,855l-21.07-78.72c5.13-2.85,9.68-5.29,13.17-7.15L853.82,846Zm38,5.77L870,878.27l-37.38,11.66-5.13-19.16Zm-53.6-1.16-78.46,23.16-9-61.09A162.07,162.07,0,0,0,761.47,801c8-5.5,17.24-11.16,26.07-16.32Zm141.54,25.6-4.64-8.12c-22.07-38.62-47.08-82.39-65.24-121.25-4.83-10.36-13-26.12-23.45-45.75L985,603.9a8,8,0,0,0,2.44-3.44l21.84.77,16.84,180.44L967.7,800.39a8.14,8.14,0,1,0,5,15.51l55-17.63,5.67,60.86Zm131.28-10.42L1086.9,929l6.78,74.9c-11.87,1.71-23.12,3.4-33.46,5q-20.73,3.27-39.56,6.12l-13.91,2.14c-7.3-23.18-12.66-40.62-14.37-47.11A111.3,111.3,0,0,0,985.83,953c-.12-.28-.24-.55-.38-.82-5.2-11.2-12.69-25.15-21.68-41.2Zm12.44-33.19-.41-3.43c0-.16,0-.32-.07-.48-1-5.37-2.29-14.45-3.19-24.77l110.9-11.61a8.14,8.14,0,0,0,7.24-9l-6.47-56.27,65.19-6.27.87,37v.18l1,42.77a14.88,14.88,0,0,0-4.46.11Zm29.31,24,1.09,77.37a8.14,8.14,0,0,0,8.25,8,8.54,8.54,0,0,0,1.25-.11,8.16,8.16,0,0,0,6.78-8.14l-1.13-80.17,36.66-6.85,2.08,42.68a8.15,8.15,0,0,0,8.53,7.74,7.78,7.78,0,0,0,1-.11,8.12,8.12,0,0,0,6.76-8.42l-2.19-44.9,42.61-8,9.77,98.28a8.14,8.14,0,0,0,8.91,7.29,4.86,4.86,0,0,0,.55-.07,8.13,8.13,0,0,0,6.74-8.83l-9.91-99.67,18.72-3.49L1272,980.82c-49.62,6-110.35,13.54-162.18,20.8l-6.72-74.18c0-.08,0-.15,0-.23l-6.77-56.77Zm142.3-380.51,15.86-2.4L1291,591.06a8.13,8.13,0,0,0,.49,2l-12.39-.43c0-.23,0-.46-.07-.69Zm38,126.45.41,17.32a6.33,6.33,0,0,0,12.66-.3l-.4-16.57,29.32,1,2.94,58-66.69-11-1.16-49.31Zm66.62,161.37c15,1,45,2.61,62.26,3.56,2.91,20.72,5.82,41.29,8.64,61l-81.38,6L1357,775.7Zm12.39-15.56,11.36-143.83h15.43c3.44,23.41,7,48.28,10.34,72.1,2.56,18.17,5.18,36.82,7.79,55.51q1.32,9.42,2.65,18.9C1415.45,759.3,1396.06,758.22,1381.47,757.36Zm45.73-211c-1.14-6.93-2.24-13.32-3.27-19.05-.19-1.07-.39-2.18-.59-3.28l71.45-13.66q1.83,12.49,3.51,23.56C1473.37,538.16,1444.14,543.32,1427.2,546.33Zm-6.7-38.3c-1.73-9.74-3.55-20-5.44-30.81-2.6-14.77-5.35-30.41-8.21-46.45l39.35-12.28a6.33,6.33,0,0,0-3.78-12.09l-37.81,11.81c-1.65-9.18-3.33-18.45-5-27.73L1475.44,377c3.8,23.67,7.72,51.09,12.28,83.87q2.46,17.73,4.72,33.38Zm-23.65-132.38c-2.45-13.2-4.93-26.34-7.43-39.17L1466,325c2.42,11.39,4.73,23.68,7,37.29Zm-10.23-53.38c-3.43-17.28-6.88-33.82-10.27-49l64.7-29.51a401.25,401.25,0,0,1,21.76,67.1Zm-13.15-61.63c-3.32-14.22-6.57-27-9.7-37.64,26.29-9.62,47.3-16.86,59.5-21,4.45,10.52,8.77,20.65,12.8,30.07Zm41.68-179.43a6.66,6.66,0,0,0,.77-.19l8.72-2.75c-7.42,6.33-16.34,13.84-26.68,21.64-1.84-5-3.57-9.93-5.17-14.63ZM1390.34,121c6.66,17.48,14.16,36.05,21.71,54.27-12.62,4.25-32.87,11.22-57.83,20.31-2.93-7.36-6.5-16-10.64-25.92q-3.74-9-7.92-19.16A286.59,286.59,0,0,0,1390.34,121ZM1318.1,19.33a6.33,6.33,0,0,0,2.84.21l38.43-5.9c1.15,5.64,2.56,11.46,4,17.34,1.71,7,3.47,14.33,5,21.92a257.13,257.13,0,0,0,6.94,25.62l-39.13,26.79a6.33,6.33,0,0,0,7.15,10.45L1379.44,91c2,5.67,4.07,11.6,6.32,17.72a276.91,276.91,0,0,1-54.9,30c-13-32-28.12-71.06-42.27-115.29Zm-34.56,77.86c12.17,32.61,23.89,60.83,33.32,83.53,4,9.57,7.41,17.86,10.22,24.89-38.83,14.63-84.9,33-130.38,53.65l-43.48-67.09c6.44-4.62,12.9-9.25,19.31-13.87l27.88,41.2a6.33,6.33,0,0,0,10.25.33l41.54-53.64,24.26-14.71,4.31,6.79a6.33,6.33,0,0,0,10.75-6.69l-7.41-12.16a6.27,6.27,0,0,0-1.26-1.49l-17.4-27.38ZM1182.8,170.88c27-19.5,52.56-38.21,72.43-52.81l14.44,22.72-25,15.18a6.33,6.33,0,0,0-1.73,1.53L1206,205.16Zm-71.75-80a6.26,6.26,0,0,0,2.57.54l88.05-.28a6.33,6.33,0,0,0,.21-12.66c-.24,0-14.89-.54-36.21-.73l-7.56-43.94,90.71-.41L1255,66a6.33,6.33,0,1,0,12.44-2.37L1262.2,36c5.1,15.78,10.31,30.9,15.5,45.26-30.61,22.64-157,115.88-223.79,160.34l-17.69-62.39,46.1-1.09a6.33,6.33,0,0,0-.3-12.66l-49.36,1.17L1014.32,102C1031.27,96.05,1064.54,92.25,1111.05,90.9Zm-94.44,78.83-31.22,11.33-20.24-34.32,16.21-6.31a6.34,6.34,0,0,0,4-6.05L985,115.7l14.33-7.11Zm-66.39-88.3,38,18.52-12.48,6.2A6.32,6.32,0,0,0,972.2,112l.43,18.27-14,5.45-7.36-12.48L940.65,92.54ZM922.3,67.81l16.16,7.88L928.68,87a6.34,6.34,0,0,0-1.18,6.21l12,34.71a5.87,5.87,0,0,0,.52,1.14l6.63,11.24-20.23,7.87c-6-29.25-11.09-53.7-12.54-60.6ZM757.17,74.68c.4-8.31.82-18.82,1.23-30.84,53.74.17,104.43.29,115.42.31l37.09,18.1-7.79,18.38L757,80.71C757,78.69,757.07,76.68,757.17,74.68ZM664.51,43.47c19,.1,41.63.19,64.93.27-.39,11.49-.79,21.54-1.18,29.53-.25,5.11-.26,10.29-.1,15.5l-70.77-5.38Zm-77.36,89.3c.59-5,1.16-9.64,1.71-14.06,3.71-30.12,5.76-49.59,1.74-68.43,6.57-3.66,15.62-7.47,24.57-7.22,4.22.12,17.72.23,36.49.34L633.28,146.5a6.33,6.33,0,0,0,12.41,2.5l11.89-52.89,71.35,5.42c3.34,37.76,15.72,76.92,28.6,110.86L591.07,233.22C586.28,213,581.64,179.08,587.15,132.77Zm9.35,267.76,7.35-2.21a8.13,8.13,0,0,0,5.48-10.06l-32.47-112c15,26,65.63,113.51,119.82,208.56l-40.37,21.78Zm67.81,120.21,40.43-21.81c10.55,18.53,21.18,37.25,31.65,55.75-14.16,7.08-27.29,13.76-40.78,21.55Zm-3.19,112c10.73-7.11,20.87-13.83,30.45-20.07,20.11-13.1,38.38-22.37,59.08-32.71,16.34,29,32,57,46.1,82.4l-52.67,32.31-9.75-21.34a8.14,8.14,0,0,0-14.81,6.77l13.57,29.7a8.14,8.14,0,0,0,11.66,3.55l59.88-36.72c7,12.69,13.5,24.6,19.39,35.51-18.09,8.61-57,27.59-83.1,43.49-12.26,7.48-44.2,13.17-64.37,16-6.27-35-12.59-66-16.73-81.08-4.22-15.32-11.88-29.88-20.93-43.12Q649.82,640.18,661.12,632.69Zm9,327.08c-9.68,4.59-36,15-60.9,19.19-4,.67-7.48,1.1-10.56,1.35-2.45.06-4.87.16-7.24.28-7.12-.07-10.79-1.29-12.37-2a42.6,42.6,0,0,1-14.22-10.37l105.59-21.43A101.89,101.89,0,0,1,670.13,959.77ZM530.61,523.71c-6.79-6.25-14.56-13.67-23.4-22.68l44.79-19,11.52,16.21Zm51.24,62.72-1.73-1.49a19.26,19.26,0,0,0-8.85-4.29l-.18-7.51c-.32-13.68-9.39-21.71-25.85-36.28l-2.34-2.07L573,511.54,643,610c-7,4.64-14.35,9.5-22,14.5C605.86,607.23,590.42,593.85,581.85,586.43Zm-51.6,424.27a394.53,394.53,0,0,0,.65,55.15l-2.16-.2-17-89.57L534.33,974a60,60,0,0,0,11.11,15.79C536.84,994.16,530.41,1000.72,530.25,1010.7Zm27.39-57.8c-1.91-10.65-4.47-22.64-7.46-35.37l91.46-16.23a8.14,8.14,0,0,0-2.84-16l-92.47,16.41c-15-59.94-37.56-130.17-49.72-155.48a65.45,65.45,0,0,0-9-14c34.56-12.21,77.62-37.35,126.94-69,7.66,11.06,14,23,17.34,35,2.44,8.85,6,25.11,10.09,45.88l-28.27,8.66-4.14-21.22a8.14,8.14,0,0,0-16,3.12l5.87,30.08a8.12,8.12,0,0,0,9.34,6.47,9.58,9.58,0,0,0,1-.24l35.22-10.78c4.34,23.27,9,50.48,13.3,78.59,6.49,42.52,9.78,72,11.21,91.61L557.67,953Zm107,183.56c-4.39,6-8.93,12.13-12.87,18.18-2,3.12-3.92,6.2-5.71,9.23-3.36-3.9-6.72-7.86-10-11.9a66.06,66.06,0,0,0-11.52-11c16.65-7.81,34.81-14.49,44.53-13.94l2.41.1C669.33,1130.12,667,1133.25,664.66,1136.46Zm22.42-38.58a158.62,158.62,0,0,1-16.4.24c-23.69-1.33-60.73,17.2-76.28,25.66-5.35-3-14.26-9.07-24.44-19.92-9.23-9.83-12.79-52.94-11-88.63,5.22-2.59,17.39-4.78,33.19-5.68q3.9,0,8.16-.34a306.28,306.28,0,0,1,47,2.43c29.83,3.91,41.75,10.53,44.26,13.09C694.29,1044.05,697.54,1069.19,687.08,1097.88Zm6-113.59a28.74,28.74,0,0,0-2.44,7.6,130.44,130.44,0,0,0-12.64-3.9c13.15-5.74,15-8.54,16.43-10.71,4-6,11.38-17.3-6.7-137.65-2.55-17-5.44-34.76-8.41-52,19.31-2.66,54.36-8.58,70-18.12,7.2-4.4,15.52-9.08,24.14-13.73l7.21,14c-9.5,5.52-19.64,11.72-28.49,17.8-23.46,16.11-42.62,20.27-42.79,20.31A8.14,8.14,0,0,0,703,817L724,959.44C708.08,966.22,697.89,974.44,693.13,984.29Zm140.07,79c-27.44,16.68-76.72,26.85-114.85,31.64,6-22.53,5.5-42.71,3.78-59.37,12.48,4.85,27.4,5.83,44.63,2.92a186.93,186.93,0,0,0,38.41-11.33c63.45-25.54,131.7-44.29,158.74-51.33.19.57.35,1.12.49,1.63,1.69,6.43,6.66,22.67,13.44,44.27C914.08,1032,868.67,1041.73,833.2,1063.29Zm164,163.12-33.78-109,26.23-15.23a8.14,8.14,0,1,0-8.18-14.07l-23,13.35-13.83-44.61c13-2.45,27-4.79,42-7.19,15.9,50.08,36.72,114.52,51,158.72C1023.71,1214.65,1008.85,1221.25,997.19,1226.41Zm71.67-32.41-4.68,2.21c-13.85-42.78-33.33-103.1-48.59-151.09l9.45-1.45,24.1-3.7,36.55,146.78Q1077.13,1190.07,1068.86,1194Zm32.26-12.67-35.83-143.88c21.79-3.43,47.59-7.1,74.83-10.78l8.78,22.85-30.9,4.34a8.14,8.14,0,1,0,2.26,16.12l40.8-5.73.47-.06,24.42-3.44,11.67,61L1126,1133.54h0a8.14,8.14,0,0,0,2.68,16.06l34.72-5.71,4.53,25.54A279.27,279.27,0,0,0,1101.12,1181.33Zm368.25-173.68c2.63,12.11,5.32,24.05,8,35.63l-67.8,9.77-48.81,1.15a8.14,8.14,0,0,0,.38,16.28l49.31-1.17a7.77,7.77,0,0,0,1-.08l69.67-10c9.56,40.46,18.53,75,23.59,94-44.71,6.45-88.65,10.6-111.48,10.68-.4,0-.79,0-1.18.06-1.14.09-114.11,9.64-178.55,5.63-10-.62-19.69-.86-29.16-.74l-4.88-27.55,29.09-4.78h0a8.13,8.13,0,0,0,6.64-9.55l-14.69-76.84a8.14,8.14,0,0,0-9.13-6.53l-25.92,3.64-8.73-22.74c39.25-5.19,80.34-10.28,116-14.57l.29,12.38-46.12,1.09a8.16,8.16,0,0,0-7.91,8.94l1.89,19.25a8.13,8.13,0,0,0,8.89,7.3,5.54,5.54,0,0,0,.57-.07A8.15,8.15,0,0,0,1237,1050l-1-10.53,45.49-1.07a8.15,8.15,0,0,0,8-8.33l-.52-22.09c41.44-4.94,73-8.52,81-9.42C1404.37,1004.18,1435.19,1007.21,1469.37,1007.65Zm-6.13-29.09a623.53,623.53,0,0,1-90.56-8.92,14.42,14.42,0,0,0-4-.11c-.49.06-12.79,1.44-32.62,3.73l-13.68-199.61,21.89-.51,1.82,77.26a6.35,6.35,0,0,0,6.8,6.17l88.89-6.53c2.88,20,5.67,38.84,8.27,55.85C1453.6,929,1458.19,953.78,1463.24,978.56Zm-.46-255.76-5.55.13-8.12-28.16c-.38-2.71-.76-5.4-1.14-8.1l15.35-1Zm.76-51.69L1446,672.3c-2.83-20-5.66-39.81-8.41-58.62,8.59.07,17.58.17,26.87.29Zm-28.68-75.54c-1.95-13.09-3.84-25.46-5.64-36.74,16.85-3,46.08-8.15,71-12.41,3.27,21.23,6,37.9,8.11,50.33C1482.13,596.08,1457.12,595.74,1434.86,595.57Zm56.28,25.81a7.25,7.25,0,0,0-6,6.67c0,.34-.53,8.7.86,37.86.37,7.89-1.46,9.42-1.48,9.43-.87.47-3.65-.17-6.54-1.55l.91-59.59c10.6.19,21.51.42,32.61.72l.53,2.91ZM1509,507.62l99.7-19.07c2.68,10.46,7.09,27.87,12,48.16-4-.39-7.16-.63-9.32-.67-7.27-.11-15.71-1.95-24.66-3.9-15.28-3.34-32.6-7.12-51.48-4.3-5.54.82-13.48,2.11-22.69,3.65C1511.44,524,1510.25,516.08,1509,507.62Zm48.26,90.76-.11-4.47,18.09-.43.13,5.73C1569.35,598.91,1563.3,598.64,1557.27,598.38Zm66.77,3.51-.3.25c-12.9-.95-26.06-1.77-39.3-2.47l-.26-10.92a4.53,4.53,0,0,0-1.4-3.17,4.58,4.58,0,0,0-3.23-1.25l-27.12.65a4.51,4.51,0,0,0-4.41,4.62l.19,8.42c-8.43-.32-16.83-.61-25.14-.86-2.15-12.64-5-30.23-8.59-53.15,9.2-1.54,17.13-2.83,22.64-3.65,16.59-2.47,32,.89,46.92,4.15,9.58,2.09,18.63,4.06,27.16,4.19,2.48,0,6.88.44,12.54,1.06C1629,576.2,1625.37,596.05,1624,601.89Zm96.13,11.43c-24.17-4.36-52.85-7.67-83.43-10.17,1.69-8,4.47-26.92.17-51.82,8.73,1.09,18.77,2.41,29.06,3.77,23.2,3.06,42.26,5.49,57.72,7.26C1723.7,589.51,1721.68,605.3,1720.17,613.32Zm3.37-63.72c-19-2.18-39.84-4.93-55.91-7.06-12.71-1.67-24.13-3.18-33.52-4.32-5.24-21.76-10-40.69-12.94-52.05l96.68-18.49C1721.46,501.5,1723.08,528.4,1723.54,549.6Zm-7.2-98.18L1614.9,470.83a6.26,6.26,0,0,0-7.45,1.43l-100.78,19.28c-1.47-10.24-3-21.1-4.62-32.65-2.35-16.89-4.53-32.33-6.61-46.62,72.38-12.15,183.24-29.64,215-32Q1713.82,414,1716.34,451.42Zm-7.61-87.18c-43.42,3.32-178,25.6-215.68,31.92q-1.71-11.32-3.36-21.68l50.81-9c.13,0,.19-.48.32-.51L1625,345.37c3.22-.58,50.63-9,80.41-9.38Q1707.13,349.76,1708.73,364.24Zm-5.13-42.67c-32,.71-79,9.21-81.32,9.62-.11,0-.23.07-.34.1l-84.18,19.64-50.5,8.86c-2.28-13.43-4.56-25.62-6.94-36.94l74.69-11.2a3.4,3.4,0,0,0,.46-.09c1-.22,96.24-20.68,143.14-25.47Q1701.18,303.1,1703.6,321.57Zm-7.2-49.8c-47.18,4.92-137.19,24.18-143.76,25.6l-75.46,11.32a416.68,416.68,0,0,0-23-71.19l-3-7c-4.26-10-9.06-21.2-14.1-33.12,28.12-10,83.18-29.74,146.44-52.47l16.24,25.46a6.32,6.32,0,0,0,6.39,2.85,6.42,6.42,0,0,0,2.35-.91,6.33,6.33,0,0,0,1.93-8.74l-14.69-23.05,67.74-24.36c2.14,7.41,6.44,23,11.77,45.87l-10.9,4.7-19.49,8.52a6.32,6.32,0,0,0-3.24,8.38l10.6,23.77,2.79,9.48a6.33,6.33,0,0,0,7.12,4.46,7.12,7.12,0,0,0,.74-.17,6.34,6.34,0,0,0,4.28-7.87l-2.91-9.88a5.77,5.77,0,0,0-.29-.79l-8.17-18.33,13.61-6,8.71-3.76C1683.71,200,1690.2,232.71,1696.4,271.77Z"/><path class="cls-11" d="M1646,1184.25c.15.6.27,1.18.4,1.78l2-1.79Z"/><polygon class="cls-11" points="980.19 778.4 991.95 778.48 992.11 754.95 1007.8 755.05 1007.88 743.29 992.19 743.18 992.27 731.41 980.51 731.33 980.43 743.1 964.74 742.99 964.66 754.76 980.35 754.87 980.19 778.4"/><path class="cls-11" d="M1696.71,435.34c-11.67.28-21.23-9.91-21.51-21.58-.13-5.36,2.48-11.43,5.68-15.24-8.28,3-14.81,12.19-14.6,21.49a21.16,21.16,0,0,0,21.64,20.64c6.31-.15,11.18-1.92,14.95-6.4A17.62,17.62,0,0,1,1696.71,435.34Z"/><polygon class="cls-11" points="1698.8 410.38 1699.59 405.05 1694.88 407.67 1690.04 405.27 1691.08 410.57 1687.3 414.43 1692.66 415.07 1695.16 419.86 1697.44 414.96 1702.76 414.06 1698.8 410.38"/><path class="cls-11" d="M611.64,864.71,600,865l-.74-31.14a11.68,11.68,0,0,0-12-11.4l-7.79.19a11.68,11.68,0,0,0-11.4,12l.74,31.14-11.68.27.28,11.68,54.49-1.29Zm-23.81-18.9.37,15.56-7.79.19L580,846l-7.78.18-.18-7.78,7.78-.18-.18-7.79,7.78-.18.19,7.78,7.78-.18.18,7.78Z"/><path class="cls-9" d="M1144.39,467.24c.41,17.41-30.77,64.32-30.77,64.32s-31.85-45.42-32.26-62.83a31.52,31.52,0,0,1,63-1.49Z"/><circle class="cls-12" cx="1112.87" cy="466.23" r="18.27"/><path class="cls-13" d="M599,586.37a13.39,13.39,0,0,1,12.17,7.21l-24,.56A13.38,13.38,0,0,1,599,586.37Zm.64,26.85A13.4,13.4,0,0,1,587.43,606l24-.57A13.38,13.38,0,0,1,599.6,613.22Z"/><path class="cls-13" d="M1132.34,259.4a23.6,23.6,0,0,0-45.69,1.08l-7.35.18.28,11.86,7.35-.17a23.6,23.6,0,0,0,45.69-1.08l7.35-.18-.28-11.86Zm-23-6.95a13.4,13.4,0,0,1,12.16,7.21l-24,.56A13.39,13.39,0,0,1,1109.32,252.45Zm.63,26.85a13.38,13.38,0,0,1-12.16-7.21l24-.56A13.37,13.37,0,0,1,1110,279.3Z"/><path class="cls-13" d="M1612,69.72a23.61,23.61,0,0,0-45.7,1.08l-7.35.18.28,11.86,7.35-.17a23.61,23.61,0,0,0,45.7-1.08l7.34-.17-.28-11.87Zm-23-6.95A13.4,13.4,0,0,1,1601.08,70l-24,.57A13.39,13.39,0,0,1,1588.92,62.77Zm.64,26.85a13.38,13.38,0,0,1-12.17-7.21l24-.56A13.4,13.4,0,0,1,1589.56,89.62Z"/><path class="cls-14" d="M479,720.54s60.93-23.65,132.95-70.95S811.63,532,849.48,509.27c93-56,167.82-133.24,242.43-178.88,94.69-57.9,260.45-118.37,400.67-168.52C1628.43,113.29,1740.3,74.1,1740.3,74.1"/><path class="cls-15" d="M0,0V1261.34H1740.3V0ZM1108.75,817.25C934.38,817.25,793,675.89,793,501.51s141.36-315.73,315.73-315.73,315.74,141.36,315.74,315.73S1283.13,817.25,1108.75,817.25Z"/><polyline class="cls-14" points="1289.18 1205.48 1611.69 1205.48 1611.69 933.52"/></g></g></g></svg>