<svg xmlns="http://www.w3.org/2000/svg" xmlns:xlink="http://www.w3.org/1999/xlink" viewBox="0 0 1474.77 1449.07"><defs><style>.cls-1{fill:none;}.cls-2{fill:#1e7e9b;}.cls-3{opacity:0.7;}.cls-4{clip-path:url(#clip-path);}.cls-5{opacity:0.8;}.cls-6{opacity:0.25;}.cls-7{fill:#78b2c3;}</style><clipPath id="clip-path"><rect class="cls-1" x="210.67" y="11.76" width="700.56" height="1224.75"/></clipPath></defs><title>fondosesion</title><g id="Capa_2" data-name="Capa 2"><g id="Capa_1-2" data-name="Capa 1"><rect class="cls-2" x="207.42" y="10.39" width="707.05" height="1227.5"/><g class="cls-3"><g class="cls-4"><g class="cls-5"><g class="cls-6"><polygon class="cls-7" points="512.42 751.01 489.6 751.01 472.04 729.94 470.45 728.04 467.36 724.36 464.03 720.36 357.58 592.68 353.28 587.53 205.29 410.05 201.22 405.18 139.9 331.63 89.8 62.49 107.04 59.28 156.29 323.91 219.44 399.64 223.5 404.51 373.11 583.93 377.4 589.09 512.42 751.01"/><polygon class="cls-7" points="484.39 751.01 476.79 751.01 457.53 727.91 455.79 725.82 452.77 722.18 451.5 720.66 397.07 655.37 394.88 652.72 346.52 594.7 342.22 589.54 259.19 489.91 257.1 487.4 195.19 413.1 191.13 408.23 129.7 334.52 129.57 333.78 118.6 274.73 118.06 271.85 99.85 173.87 99.31 170.95 77.88 55.68 77.53 53.78 83.28 52.72 83.87 55.84 135.18 331.96 197.21 406.39 201.27 411.26 348.82 588.33 353.13 593.5 459.37 720.98 461.81 723.92 464.87 727.57 466.74 729.82 484.39 751.01"/><polygon class="cls-7" points="524.65 751.01 517.06 751.01 381.5 588.35 377.2 583.19 227.33 403.35 223.27 398.47 158.79 321.11 158.66 320.35 109.63 56.5 109.11 53.78 114.86 52.72 115.59 56.65 122.18 92.12 124.37 103.94 148.99 236.39 149.53 239.31 164.26 318.54 228.75 395.93 232.49 400.42 262.42 436.32 264.29 438.58 294.19 474.47 296.06 476.7 325.99 512.62 327.86 514.87 355.18 547.65 357.08 549.93 383.79 581.99 383.8 581.99 388.1 587.15 524.65 751.01"/><path class="cls-7" d="M197.1,198.39l-5.26-2.55c1.87-3.84-.82-10.54-2.06-12.93L117.2,95.27l4.5-3.73,72.94,88.08.13.25C195.39,181,200.68,191,197.1,198.39Z"/><path class="cls-7" d="M206.48,190.05c-1.91,0-9.56-.49-17.18-7.74l4-4.23c6.67,6.34,13.16,6.12,13.22,6.12l.36,5.83A2.82,2.82,0,0,1,206.48,190.05Z"/><path class="cls-7" d="M731.08,712.93,500.59,564.72l-.3-.36c-2.29-2.82-229-281.76-235.8-289.14-5.91-6.44-14.92-6.51-15.21-6.51h0l-.05-5.84c.48,0,11.85,0,19.57,8.39,6.85,7.45,222.86,273.2,235.74,289L731.08,706.24Z"/><path class="cls-7" d="M263.89,274.59c-6.86-10.77-4-22.47-3.9-23l5.66,1.43-2.83-.72,2.84.71c0,.09-2.32,9.8,3.16,18.4Z"/><path class="cls-7" d="M261.92,240.41l-17.77-22-1.84-2.28-20.48-25.43a17.31,17.31,0,0,0-13.55-6.48,16.75,16.75,0,0,0-1.74.09,17.29,17.29,0,0,0-8.79,3.48l-.22.17a1.5,1.5,0,0,0-.13.11,17.33,17.33,0,0,0-2.63,24.43l19.28,23.94,2.35,2.93,18.44,22.89a17.33,17.33,0,0,0,13.55,6.49l.88,0a17.42,17.42,0,0,0,10-3.79l.05,0,.58-.5a17.15,17.15,0,0,0,5.44-9.1v0a15.54,15.54,0,0,0,.35-2.06A17.27,17.27,0,0,0,261.92,240.41Zm-2,11.67c0,.15,0,.31-.05.47,0,.34-.08.67-.14,1a.49.49,0,0,0,0,.14,3.21,3.21,0,0,0-.1.35.15.15,0,0,1,0,.09v0c-.07.3-.16.59-.26.89a10.1,10.1,0,0,1-.67,1.59,2,2,0,0,1-.21.38,8.06,8.06,0,0,1-.48.8,10.63,10.63,0,0,1-1.43,1.71l0,0c-.26.26-.56.51-.85.75a11.55,11.55,0,0,1-16.22-1.74l-40.09-49.78a11.55,11.55,0,0,1,1.75-16.22,11.56,11.56,0,0,1,16.22,1.75l40.08,49.77a11.09,11.09,0,0,1,1.1,1.63,8.79,8.79,0,0,1,.43.87,6.2,6.2,0,0,1,.35.84,11.41,11.41,0,0,1,.66,4.58S259.89,252,259.89,252.08Z"/><path class="cls-2" d="M248.39,262.85a11.5,11.5,0,0,1-9-4.3l-40.09-49.77a11.55,11.55,0,0,1,1.75-16.22,11.54,11.54,0,0,1,16.22,1.75l40.08,49.77a11.53,11.53,0,0,1-9,18.77Z"/><polygon class="cls-7" points="708.11 20.46 505.98 181.94 503.67 183.78 452.75 224.46 450.48 226.28 404.71 262.82 400.15 266.48 361.65 297.23 359.37 299.06 318.46 331.74 313.9 335.38 232.49 400.42 229.73 402.62 229.19 402.78 227.33 403.35 223.5 404.51 205.29 410.05 201.27 411.26 195.19 413.1 119.65 436.04 116.63 436.96 116.61 436.96 25.03 464.76 21.99 465.68 0.53 472.19 0.53 466.09 191.13 408.23 197.21 406.39 201.22 405.18 219.44 399.64 223.27 398.47 226.95 397.36 228.75 395.93 310.21 330.85 314.77 327.22 396.57 261.86 401.13 258.21 474.14 199.88 476.42 198.05 566.43 126.15 568.74 124.31 698.73 20.46 708.11 20.46"/><polygon class="cls-7" points="587.89 620.05 542.99 450.84 315.96 157.81 161.9 57.85 1.71 53.72 1.86 47.88 163.7 52.05 319.98 153.45 320.28 153.84 548.34 448.19 548.49 448.77 593.54 618.55 587.89 620.05"/><polygon class="cls-7" points="731.08 518.9 731.08 524.83 576.13 552.99 570.37 554.02 511.42 564.73 503 566.27 421.94 581 418.58 581.61 388.1 587.15 381.5 588.35 377.4 589.09 357.58 592.68 353.13 593.5 346.52 594.7 157.17 629.09 154.28 629.62 1.05 657.46 0 651.7 0.53 651.6 151.97 624.1 155.26 623.5 254.83 605.41 257.21 604.97 342.22 589.54 348.82 588.33 353.28 587.53 373.11 583.93 377.2 583.19 383.79 581.99 442.01 571.41 445.35 570.81 497.8 561.27 504.36 560.09 568.87 548.37 574.64 547.32 670.76 529.86 672.69 529.51 731.08 518.9"/><polygon class="cls-7" points="731.08 109.12 731.08 116.7 489.65 316.61 487.38 318.48 463.29 338.42 461.11 340.23 457.38 335.73 459.71 333.81 509.52 292.56 511.77 290.7 565.83 245.93 568.11 244.06 684.88 147.37 687.13 145.5 731.08 109.12"/><polygon class="cls-7" points="185.36 407.1 125.08 424.82 129.65 339.34 185.36 407.1"/><rect class="cls-7" x="184.96" y="408.91" width="2.92" height="221.62" transform="translate(-287.36 236.18) rotate(-39.37)"/><polygon class="cls-7" points="174.4 751.01 171.43 751.01 154.28 629.62 153.82 626.36 151.97 624.1 78.49 534.55 76.43 532.03 21.99 465.68 20.37 463.7 22.63 461.84 25.03 464.76 79.59 531.26 81.65 533.77 155.26 623.5 156.62 625.15 157.17 629.09 163.24 672.04 165.16 685.73 165.57 688.62 174.4 751.01"/><rect class="cls-7" x="-3.39" y="518.62" width="268.62" height="2.92" transform="translate(-120.89 46.56) rotate(-13.87)"/><rect class="cls-7" x="251.46" y="403.35" width="107.27" height="2.92" transform="translate(-184.55 273.64) rotate(-38)"/><rect class="cls-7" x="281.08" y="443.18" width="107.27" height="2.92" transform="translate(-202.79 300.34) rotate(-38)"/><rect class="cls-7" x="313.51" y="480.84" width="107.27" height="2.92" transform="matrix(0.79, -0.62, 0.62, 0.79, -219.1, 328.26)"/><polygon class="cls-7" points="353.88 551.76 352.43 549.22 447.89 494.9 545.03 448.2 546.3 450.83 449.25 497.49 353.88 551.76"/><rect class="cls-7" x="422.92" y="515.41" width="2.92" height="66.2" transform="translate(-254.5 406.83) rotate(-40.48)"/><rect class="cls-7" x="427.72" y="271.08" width="2.92" height="225.33" transform="translate(-145.72 352.99) rotate(-38.74)"/><rect class="cls-7" x="479.65" y="211.2" width="2.92" height="94.54" transform="translate(-50.05 385.53) rotate(-41.7)"/><rect class="cls-7" x="534.7" y="166.7" width="2.92" height="94.99" transform="translate(5.58 441.86) rotate(-45)"/><polygon class="cls-7" points="731.08 46.43 731.08 50.26 659.24 111.39 657 113.29 538.32 214.27 537.1 215.31 535.22 213.07 536.24 212.2 731.08 46.43"/><polygon class="cls-7" points="731.08 338.2 731.08 342.05 679.3 386.1 678.9 386.43 677 384.21 677.44 383.83 731.08 338.2"/><rect class="cls-7" x="671.06" y="105.74" width="2.92" height="48.42" transform="matrix(0.77, -0.63, 0.63, 0.77, 69.71, 455.2)"/><rect class="cls-7" x="578.1" y="280.63" width="2.92" height="283.72" transform="translate(-135.08 483.13) rotate(-40.94)"/><polygon class="cls-7" points="731.08 209.57 731.08 213.41 686.94 251.22 684.72 253.12 672.58 263.51 672.49 263.58 672.49 263.6 672.48 263.61 649.73 283.09 649.64 283.15 617.22 310.92 615 312.82 541.2 376.02 540.07 376.98 538.15 374.76 539.26 373.81 647.99 280.72 648.06 280.65 674.61 257.93 674.61 257.92 674.68 257.86 731.08 209.57"/><polygon class="cls-7" points="731.08 306.94 731.08 311.64 684.72 253.12 683.77 251.92 686.06 250.11 686.94 251.22 731.08 306.94"/><polygon class="cls-7" points="731.08 448.79 731.08 453.37 615 312.82 614.05 311.67 616.3 309.8 617.22 310.92 677.44 383.83 679.3 386.1 731.08 448.79"/><polygon class="cls-7" points="478.26 200.3 476.01 202.16 474.14 199.88 394.32 102.47 393.61 101.59 391.94 100.57 261.29 20.46 266.87 20.46 394.51 98.73 395.55 99.36 395.71 99.55 396.71 100.76 476.42 198.05 478.26 200.3"/><rect class="cls-7" x="521.98" y="20.88" width="2.92" height="126.53" transform="translate(105.17 409.91) rotate(-47.04)"/><rect class="cls-7" x="146.3" y="236.4" width="72.68" height="2.92"/><polygon class="cls-7" points="508.22 20.46 479.43 41.17 477.02 42.93 396.71 100.76 394.32 102.47 321.24 155.08 318.83 156.82 316.61 158.65 244.15 218.36 241.92 220.2 240.05 217.95 242.31 216.08 314.31 156.75 317.05 154.5 319.21 152.95 391.94 100.57 394.51 98.73 503.22 20.46 508.22 20.46"/><rect class="cls-7" x="1.78" y="170.95" width="100.77" height="2.92"/><polygon class="cls-7" points="119.8 274.44 118.6 274.73 70.02 286.36 43.2 292.78 0.53 303 0.53 300.01 41.73 290.13 71.54 283 118.06 271.85 119.11 271.61 119.8 274.44"/><path class="cls-7" d="M227.09,20.46C223.43,32,210.74,47.94,168.55,47.85c-20.88,0-125.59-3.23-168-4.56V20.46Z"/><polygon class="cls-7" points="325.92 332.24 451.68 488.14 472.95 478.33 341.33 319.25 325.92 332.24"/><rect class="cls-7" x="162.72" y="669.01" width="237.86" height="2.92" transform="translate(-92.38 46.8) rotate(-8.17)"/><polygon class="cls-7" points="569.29 751.01 565.42 751.01 418.58 581.61 416.93 579.7 419.15 577.78 421.94 581 469.1 635.42 471.34 637.99 515.01 688.37 515.36 688.78 569.29 751.01"/><rect class="cls-7" x="513.73" y="673.3" width="144.61" height="2.92" transform="translate(-108.95 112.86) rotate(-10.07)"/><rect class="cls-7" x="467.64" y="625.18" width="119.3" height="2.92" transform="translate(-100.92 101.22) rotate(-10.01)"/><polygon class="cls-7" points="261.3 601.49 336.33 588.34 297.72 541.59 261.3 599.54 261.3 601.49"/><path class="cls-7" d="M677.93,239.81a22.77,22.77,0,0,0-45.49,0c0,.38,0,.78,0,1.17V243s1.46,16.45,15.65,37.62c.53.8,1.08,1.62,1.67,2.44,1.68,2.4,3.52,4.84,5.55,7.32a97,97,0,0,0,17.19-26.8h0v0c.82-2,1.52-3.85,2.12-5.65v0a63.7,63.7,0,0,0,3.3-15.63,3,3,0,0,0,0-.42c0-.5,0-.81,0-.88C678,240.59,677.94,240.19,677.93,239.81Zm-32.87.15v-.09c0-.35,0-.7.06-1a10.21,10.21,0,0,1,20.33,0c0,.34.06.69.06,1V240a7.46,7.46,0,0,1-.06.95,10.23,10.23,0,0,1-20.33,0A7.46,7.46,0,0,1,645.06,240Z"/><polygon class="cls-7" points="597.39 616.28 581.32 557.91 638.3 546.46 597.39 616.28"/><polygon class="cls-7" points="176.02 424.82 193.84 417.88 248.18 484.84 231.38 489.47 176.02 424.82"/><path class="cls-7" d="M672.52,557.91a21.64,21.64,0,0,0-21.63,21.62v2.11s1.85,20.64,21.73,45c21.52-24.2,21.52-46.38,21.52-47.11A21.62,21.62,0,0,0,672.52,557.91Zm.1,30.36a9.71,9.71,0,1,1,9.72-9.72A9.72,9.72,0,0,1,672.62,588.27Z"/><path class="cls-7" d="M502.58,419.48a22.77,22.77,0,0,0-22.77,22.78v2.27a52.1,52.1,0,0,0,1.17,6.12,95.27,95.27,0,0,0,9.69,23.68c.45.84.95,1.67,1.46,2.53a123.68,123.68,0,0,0,10.55,15,95.19,95.19,0,0,0,17.93-28.68c.54-1.34,1-2.66,1.41-3.91,3.32-9.94,3.32-16.6,3.32-17A22.76,22.76,0,0,0,502.58,419.48Zm.1,11.52a10.23,10.23,0,1,1-10.23,10.23A10.22,10.22,0,0,1,502.68,431Z"/><path class="cls-7" d="M677.93,239.81a22.78,22.78,0,0,0-45.49,0c0,.38,0,.78,0,1.17v2.22s1.46,16.41,15.58,37.52c.52.81,1.08,1.61,1.65,2.43,1.71,2.42,3.58,4.91,5.64,7.44a97.26,97.26,0,0,0,17.3-27.08c.81-2,1.52-3.87,2.1-5.65a62.26,62.26,0,0,0,3.23-15.58,3,3,0,0,0,0-.42c0-.5,0-.81,0-.88C678,240.59,677.94,240.19,677.93,239.81Zm-32.87.06c0-.35,0-.7.06-1a10.23,10.23,0,0,1,20.33,0c0,.34.06.69.06,1V240a7.46,7.46,0,0,1-.06.95,10.21,10.21,0,0,1-20.33,0,7.46,7.46,0,0,1-.06-.95Z"/><path class="cls-7" d="M54.51,236.85a22.76,22.76,0,0,0-22.78,22.76v2.21s1.06,11.82,10,28.31c.47.86,1,1.76,1.47,2.65a123.62,123.62,0,0,0,11.4,16.43A98.89,98.89,0,0,0,70,286.36c.54-1.14,1-2.26,1.52-3.36,5.74-13.38,5.74-22.91,5.74-23.39A22.76,22.76,0,0,0,54.51,236.85Zm.09,11.51a10.22,10.22,0,1,1-10.21,10.21A10.21,10.21,0,0,1,54.6,248.36Z"/><path class="cls-7" d="M481.11,74.44a21.62,21.62,0,0,0-21.62,21.63v2.1s1.83,20.65,21.71,45c21.54-24.19,21.54-46.37,21.54-47.1A21.64,21.64,0,0,0,481.11,74.44Zm.09,30.37a9.71,9.71,0,1,1,9.72-9.72A9.71,9.71,0,0,1,481.2,104.81Z"/><path class="cls-7" d="M206.16,255.93a21.61,21.61,0,0,0-21.62,21.62v2.09s1.82,20.66,21.72,45c21.53-24.19,21.53-46.37,21.53-47.09A21.62,21.62,0,0,0,206.16,255.93Zm.1,30.35a9.71,9.71,0,1,1,9.71-9.71A9.71,9.71,0,0,1,206.26,286.28Z"/><path class="cls-7" d="M72.53,660.89A21.64,21.64,0,0,0,50.9,682.51v2.11s1.85,20.64,21.73,45c21.52-24.2,21.52-46.39,21.52-47.11A21.62,21.62,0,0,0,72.53,660.89Zm.1,30.35a9.71,9.71,0,1,1,9.72-9.71A9.7,9.7,0,0,1,72.63,691.24Z"/></g><g class="cls-6"><polygon class="cls-7" points="943.37 0 966.19 0 983.75 21.07 985.34 22.97 988.43 26.65 991.76 30.66 1098.21 158.33 1102.51 163.48 1250.5 340.96 1254.57 345.83 1315.89 419.38 1365.99 688.52 1348.75 691.73 1299.5 427.1 1236.35 351.37 1232.29 346.5 1082.68 167.08 1078.38 161.92 943.37 0"/><polygon class="cls-7" points="971.4 0 979 0 998.26 23.1 1000 25.19 1003.02 28.83 1004.29 30.35 1058.72 95.64 1060.91 98.29 1109.27 156.31 1113.57 161.47 1196.61 261.1 1198.69 263.61 1260.6 337.91 1264.66 342.78 1326.09 416.49 1326.22 417.23 1337.19 476.28 1337.73 479.16 1355.94 577.14 1356.48 580.06 1377.91 695.33 1378.26 697.23 1372.51 698.29 1371.92 695.17 1320.61 419.05 1258.59 344.62 1254.52 339.75 1106.96 162.68 1102.65 157.51 996.42 30.02 993.98 27.09 990.92 23.44 989.05 21.19 971.4 0"/><polygon class="cls-7" points="931.14 0 938.73 0 1074.3 162.66 1078.59 167.82 1228.46 347.66 1232.52 352.54 1297 429.9 1297.13 430.66 1346.16 694.51 1346.67 697.23 1340.93 698.29 1340.2 694.36 1333.61 658.89 1331.42 647.07 1306.8 514.62 1306.26 511.69 1291.53 432.47 1227.04 355.08 1223.3 350.59 1193.38 314.69 1191.51 312.43 1161.6 276.54 1159.73 274.31 1129.8 238.4 1127.93 236.15 1100.61 203.36 1098.71 201.08 1072 169.02 1071.99 169.02 1067.69 163.86 931.14 0"/><path class="cls-7" d="M1258.69,552.62l5.26,2.55c-1.87,3.84.82,10.54,2.07,12.93l72.57,87.64-4.5,3.73-72.94-88.08-.13-.25C1260.4,570,1255.11,560,1258.69,552.62Z"/><path class="cls-7" d="M1249.31,561c1.91,0,9.56.49,17.18,7.74l-4,4.23c-6.67-6.34-13.16-6.12-13.22-6.12l-.36-5.83A2.82,2.82,0,0,1,1249.31,561Z"/><path class="cls-7" d="M724.71,38.08,955.2,186.29l.3.36c2.29,2.82,229,281.76,235.8,289.14,5.91,6.44,14.92,6.51,15.21,6.51h0l0,5.84c-.48,0-11.85,0-19.57-8.39-6.85-7.45-222.86-273.2-235.74-289L724.71,44.77Z"/><path class="cls-7" d="M1191.9,476.42c6.86,10.77,4,22.47,3.9,23l-5.66-1.43,2.83.72-2.84-.71c0-.09,2.32-9.8-3.16-18.4Z"/><path class="cls-7" d="M1193.87,510.6l17.77,22,1.84,2.28L1234,560.36a17.31,17.31,0,0,0,13.55,6.48,16.75,16.75,0,0,0,1.74-.09,17.29,17.29,0,0,0,8.79-3.48l.22-.17a1.5,1.5,0,0,0,.13-.11,17.33,17.33,0,0,0,2.63-24.43l-19.28-23.94-2.35-2.93L1221,488.8a17.33,17.33,0,0,0-13.55-6.49l-.88,0a17.42,17.42,0,0,0-10,3.79l0,0-.58.5a17.15,17.15,0,0,0-5.44,9.1v0a15.54,15.54,0,0,0-.35,2.06A17.32,17.32,0,0,0,1193.87,510.6Zm2-11.67c0-.15,0-.31,0-.47,0-.34.08-.67.14-1a.49.49,0,0,0,0-.14,1.89,1.89,0,0,0,.1-.35.15.15,0,0,1,0-.09v0c.07-.3.16-.59.26-.89a10.1,10.1,0,0,1,.67-1.59,2,2,0,0,1,.21-.38,8.06,8.06,0,0,1,.48-.8,10.63,10.63,0,0,1,1.43-1.71s0,0,0,0c.26-.26.56-.51.85-.75a11.55,11.55,0,0,1,16.22,1.74l40.09,49.78a11.55,11.55,0,0,1-1.75,16.22,11.56,11.56,0,0,1-16.22-1.75l-40.08-49.77a10.29,10.29,0,0,1-1.09-1.63,7.09,7.09,0,0,1-.44-.87,7.81,7.81,0,0,1-.35-.84,11.41,11.41,0,0,1-.66-4.58S1195.9,499,1195.9,498.93Z"/><path class="cls-2" d="M1207.4,488.16a11.5,11.5,0,0,1,9,4.3l40.09,49.77a11.55,11.55,0,0,1-1.75,16.22,11.54,11.54,0,0,1-16.22-1.75l-40.08-49.77a11.53,11.53,0,0,1,9-18.77Z"/><polygon class="cls-7" points="747.68 730.55 949.81 569.07 952.12 567.23 1003.04 526.55 1005.32 524.73 1051.08 488.19 1055.64 484.53 1094.14 453.78 1096.42 451.95 1137.33 419.26 1141.89 415.63 1223.3 350.59 1226.06 348.39 1226.6 348.23 1228.46 347.66 1232.29 346.5 1250.5 340.96 1254.52 339.75 1260.6 337.91 1336.14 314.97 1339.16 314.05 1339.18 314.05 1430.76 286.25 1433.8 285.33 1455.26 278.82 1455.26 284.92 1264.66 342.78 1258.59 344.62 1254.57 345.83 1236.35 351.37 1232.52 352.54 1228.84 353.65 1227.04 355.08 1145.58 420.16 1141.02 423.79 1059.22 489.15 1054.66 492.8 981.64 551.13 979.37 552.96 889.36 624.86 887.05 626.7 757.06 730.55 747.68 730.55"/><polygon class="cls-7" points="867.9 130.96 912.8 300.17 1139.83 593.2 1293.89 693.16 1454.09 697.29 1453.93 703.13 1292.09 698.96 1135.81 597.56 1135.51 597.17 907.45 302.82 907.3 302.24 862.25 132.46 867.9 130.96"/><polygon class="cls-7" points="724.71 232.11 724.71 226.18 879.66 198.03 885.42 196.99 944.37 186.28 952.79 184.74 1033.85 170.01 1037.21 169.4 1067.69 163.86 1074.3 162.66 1078.38 161.92 1098.21 158.33 1102.65 157.51 1109.27 156.31 1298.62 121.92 1301.51 121.39 1454.74 93.56 1455.79 99.31 1455.26 99.41 1303.82 126.91 1300.53 127.51 1200.96 145.6 1198.58 146.04 1113.57 161.47 1106.96 162.68 1102.51 163.48 1082.68 167.08 1078.59 167.82 1072 169.02 1013.77 179.6 1010.44 180.2 957.99 189.74 951.43 190.92 886.92 202.64 881.15 203.69 785.02 221.15 783.1 221.5 724.71 232.11"/><polygon class="cls-7" points="724.71 641.89 724.71 634.31 966.14 434.4 968.41 432.53 992.5 412.59 994.68 410.78 998.4 415.28 996.08 417.2 946.27 458.45 944.02 460.31 889.96 505.08 887.68 506.95 770.91 603.64 768.66 605.51 724.71 641.89"/><polygon class="cls-7" points="1270.43 343.91 1330.7 326.19 1326.14 411.67 1270.43 343.91"/><rect class="cls-7" x="1267.91" y="120.48" width="2.92" height="221.62" transform="translate(141.33 857.64) rotate(-39.37)"/><polygon class="cls-7" points="1281.39 0 1284.36 0 1301.51 121.39 1301.96 124.65 1303.82 126.91 1377.3 216.46 1379.36 218.98 1433.8 285.33 1435.42 287.31 1433.16 289.17 1430.76 286.25 1376.2 219.75 1374.14 217.24 1300.53 127.51 1299.17 125.86 1298.62 121.92 1292.56 78.97 1290.63 65.28 1290.22 62.39 1281.39 0"/><rect class="cls-7" x="1190.57" y="229.46" width="268.62" height="2.92" transform="translate(-16.72 324.41) rotate(-13.87)"/><rect class="cls-7" x="1097.06" y="344.74" width="107.27" height="2.92" transform="translate(30.78 781.8) rotate(-38)"/><rect class="cls-7" x="1067.44" y="304.91" width="107.27" height="2.92" transform="translate(49.04 755.17) rotate(-38)"/><rect class="cls-7" x="1035.02" y="267.25" width="107.27" height="2.92" transform="translate(65.34 727.18) rotate(-38)"/><polygon class="cls-7" points="1101.91 199.25 1103.36 201.79 1007.9 256.11 910.76 302.81 909.49 300.18 1006.54 253.52 1101.91 199.25"/><rect class="cls-7" x="1029.95" y="169.41" width="2.92" height="66.2" transform="translate(115.45 718.1) rotate(-40.48)"/><rect class="cls-7" x="1025.14" y="254.61" width="2.92" height="225.33" transform="translate(-3.98 723.22) rotate(-38.74)"/><rect class="cls-7" x="973.22" y="445.27" width="2.92" height="94.54" transform="translate(-80.71 773.17) rotate(-41.7)"/><rect class="cls-7" x="918.17" y="489.33" width="2.92" height="94.99" transform="translate(-110.24 807.5) rotate(-45)"/><polygon class="cls-7" points="724.71 704.58 724.71 700.75 796.55 639.62 798.79 637.72 917.47 536.74 918.69 535.7 920.57 537.94 919.55 538.81 724.71 704.58"/><polygon class="cls-7" points="724.71 412.81 724.71 408.96 776.49 364.91 776.89 364.58 778.78 366.8 778.35 367.18 724.71 412.81"/><rect class="cls-7" x="781.8" y="596.84" width="2.92" height="48.42" transform="translate(-216.23 636.31) rotate(-39.29)"/><rect class="cls-7" x="874.76" y="186.66" width="2.92" height="283.72" transform="translate(-0.93 654.54) rotate(-40.94)"/><polygon class="cls-7" points="724.71 541.44 724.71 537.6 768.85 499.79 771.07 497.89 783.21 487.5 783.3 487.43 783.3 487.41 783.32 487.4 806.06 467.92 806.15 467.86 838.57 440.09 840.79 438.19 914.6 374.99 915.72 374.03 917.63 376.25 916.52 377.2 807.8 470.29 807.73 470.36 781.18 493.08 781.18 493.1 781.11 493.15 724.71 541.44"/><polygon class="cls-7" points="724.71 444.07 724.71 439.37 771.07 497.89 772.02 499.09 769.73 500.9 768.85 499.79 724.71 444.07"/><polygon class="cls-7" points="724.71 302.21 724.71 297.64 840.79 438.19 841.74 439.34 839.49 441.21 838.57 440.09 778.35 367.18 776.49 364.91 724.71 302.21"/><polygon class="cls-7" points="977.53 550.71 979.78 548.85 981.64 551.13 1061.47 648.54 1062.18 649.42 1063.85 650.44 1194.5 730.55 1188.92 730.55 1061.28 652.28 1060.24 651.65 1060.08 651.47 1059.08 650.25 979.37 552.96 977.53 550.71"/><rect class="cls-7" x="930.89" y="603.6" width="2.92" height="126.53" transform="translate(-191.05 894.82) rotate(-47.04)"/><rect class="cls-7" x="1236.81" y="511.69" width="72.68" height="2.92"/><polygon class="cls-7" points="947.57 730.55 976.36 709.84 978.77 708.08 1059.08 650.25 1061.47 648.54 1134.55 595.93 1136.96 594.19 1139.18 592.36 1211.64 532.65 1213.88 530.81 1215.74 533.06 1213.48 534.93 1141.48 594.26 1138.74 596.51 1136.58 598.06 1063.85 650.44 1061.28 652.28 952.57 730.55 947.57 730.55"/><rect class="cls-7" x="1353.24" y="577.14" width="100.77" height="2.92"/><polygon class="cls-7" points="1335.99 476.57 1337.19 476.28 1385.77 464.65 1412.59 458.23 1455.26 448 1455.26 451 1414.06 460.88 1384.25 468.01 1337.73 479.16 1336.68 479.4 1335.99 476.57"/><path class="cls-7" d="M1228.7,730.55c3.66-11.54,16.35-27.48,58.54-27.39,20.88,0,125.59,3.23,168,4.56v22.83Z"/><polygon class="cls-7" points="1129.87 418.77 1004.11 262.87 982.84 272.68 1114.46 431.76 1129.87 418.77"/><rect class="cls-7" x="1055.21" y="79.08" width="237.86" height="2.92" transform="translate(0.47 167.6) rotate(-8.17)"/><polygon class="cls-7" points="886.5 0 890.37 0 1037.21 169.4 1038.86 171.31 1036.64 173.23 1033.85 170.01 986.69 115.59 984.45 113.02 940.78 62.64 940.43 62.23 886.5 0"/><rect class="cls-7" x="797.45" y="74.79" width="144.61" height="2.92" transform="translate(0.07 153.25) rotate(-10.07)"/><rect class="cls-7" x="868.85" y="122.91" width="119.3" height="2.92" transform="translate(-7.48 163.33) rotate(-10.01)"/><polygon class="cls-7" points="1194.49 149.52 1119.45 162.67 1158.07 209.43 1194.49 151.47 1194.49 149.52"/><path class="cls-7" d="M777.86,511.2a22.77,22.77,0,0,0,45.49,0c0-.38,0-.78,0-1.17v-2s-1.46-16.45-15.65-37.62c-.53-.8-1.08-1.62-1.67-2.44-1.68-2.4-3.52-4.84-5.55-7.32a97,97,0,0,0-17.19,26.8h0v0c-.82,2-1.52,3.85-2.12,5.65v0a63.7,63.7,0,0,0-3.3,15.63,3,3,0,0,0,0,.42c0,.5,0,.81,0,.88C777.84,510.42,777.85,510.82,777.86,511.2Zm32.87-.15v.09c0,.35,0,.7-.06,1a10.21,10.21,0,0,1-20.33,0c0-.34-.06-.69-.06-1v-.09a7.46,7.46,0,0,1,.06-.95,10.23,10.23,0,0,1,20.33,0A7.46,7.46,0,0,1,810.73,511.05Z"/><polygon class="cls-7" points="858.4 134.73 874.47 193.09 817.49 204.56 858.4 134.73"/><polygon class="cls-7" points="1279.77 326.19 1261.95 333.13 1207.61 266.17 1224.41 261.54 1279.77 326.19"/><path class="cls-7" d="M833.58,311.07a22.78,22.78,0,0,0-45.49,0c0,.38,0,.77,0,1.17v2.22s1.47,16.41,15.58,37.52c.53.81,1.08,1.61,1.65,2.43,1.71,2.42,3.58,4.91,5.64,7.43a96.85,96.85,0,0,0,17.3-27.07c.82-2,1.52-3.87,2.11-5.66a62,62,0,0,0,3.22-15.57,3.1,3.1,0,0,0,0-.42c0-.5,0-.81,0-.88C833.61,311.84,833.59,311.45,833.58,311.07Zm-32.86.06c0-.35,0-.7.06-1a10.22,10.22,0,0,1,20.32,0c0,.34.06.69.06,1v.09a7.46,7.46,0,0,1-.06.95,10.2,10.2,0,0,1-20.32,0,6,6,0,0,1-.06-.95Z"/><path class="cls-7" d="M1401.28,514.16a22.76,22.76,0,0,0,22.78-22.76v-2.21s-1.06-11.82-10-28.31c-.47-.86-1-1.76-1.47-2.65a123,123,0,0,0-11.4-16.43,98.89,98.89,0,0,0-15.42,22.85c-.54,1.14-1,2.26-1.52,3.36-5.74,13.38-5.74,22.91-5.74,23.39A22.76,22.76,0,0,0,1401.28,514.16Zm-.09-11.51a10.22,10.22,0,1,1,10.21-10.21A10.21,10.21,0,0,1,1401.19,502.65Z"/><path class="cls-7" d="M974.59,646.2a9.71,9.71,0,1,1-9.72,9.72A9.71,9.71,0,0,1,974.59,646.2Z"/><path class="cls-7" d="M1053.69,527.18a21.62,21.62,0,0,0-21.62,21.63v2.09s1.83,20.66,21.73,45c21.52-24.2,21.52-46.38,21.52-47.09A21.62,21.62,0,0,0,1053.69,527.18Zm.11,30.35a9.71,9.71,0,1,1,9.7-9.7A9.71,9.71,0,0,1,1053.8,557.53Z"/><path class="cls-7" d="M1383.26,90.12a21.64,21.64,0,0,0,21.63-21.62V66.39s-1.85-20.64-21.73-45c-21.52,24.2-21.52,46.39-21.52,47.11A21.62,21.62,0,0,0,1383.26,90.12Zm-.1-30.35a9.71,9.71,0,1,1-9.72,9.71A9.7,9.7,0,0,1,1383.16,59.77Z"/></g></g><g class="cls-6"><polygon class="cls-7" points="962.34 698.06 985.16 698.06 1002.73 719.13 1004.32 721.02 1007.4 724.71 1010.73 728.71 1117.19 856.38 1121.48 861.54 1269.48 1039.02 1273.54 1043.89 1334.87 1117.44 1384.97 1386.58 1367.73 1389.79 1318.47 1125.15 1255.32 1049.42 1251.26 1044.56 1101.66 865.13 1097.36 859.98 962.34 698.06"/><polygon class="cls-7" points="990.38 698.06 997.98 698.06 1017.24 721.16 1018.97 723.25 1022 726.89 1023.27 728.4 1077.69 793.7 1079.89 796.35 1128.25 854.37 1132.55 859.52 1215.58 959.16 1217.67 961.67 1279.58 1035.97 1283.64 1040.83 1345.06 1114.55 1345.2 1115.29 1356.17 1174.34 1356.71 1177.21 1374.91 1275.19 1375.45 1278.12 1396.89 1393.38 1397.24 1395.28 1391.48 1396.35 1390.9 1393.22 1339.59 1117.1 1277.56 1042.67 1273.5 1037.81 1125.94 860.74 1121.63 855.56 1015.39 728.08 1012.95 725.15 1009.9 721.49 1008.03 719.24 990.38 698.06"/><polygon class="cls-7" points="950.11 698.06 957.71 698.06 1093.27 860.72 1097.57 865.88 1247.43 1045.71 1251.49 1050.59 1315.97 1127.96 1316.11 1128.72 1365.14 1392.57 1365.65 1395.28 1359.91 1396.35 1359.18 1392.42 1352.59 1356.94 1350.4 1345.12 1325.78 1212.67 1325.24 1209.75 1310.51 1130.53 1246.02 1053.13 1242.28 1048.65 1212.35 1012.75 1210.48 1010.49 1180.57 974.6 1178.7 972.37 1148.78 936.45 1146.91 934.2 1119.59 901.41 1117.69 899.13 1090.98 867.08 1090.96 867.08 1086.67 861.92 950.11 698.06"/><path class="cls-7" d="M1277.66,1250.68l5.26,2.55c-1.86,3.84.82,10.54,2.07,12.93l72.58,87.64-4.5,3.72-72.94-88.07-.14-.25C1279.38,1268.08,1274.09,1258.05,1277.66,1250.68Z"/><path class="cls-7" d="M1268.29,1259c1.9,0,9.55.49,17.17,7.74l-4,4.23c-6.66-6.35-13.15-6.13-13.21-6.12l-.37-5.84Z"/><path class="cls-7" d="M743.69,736.14,974.18,884.35l.29.36c2.29,2.82,229,281.75,235.81,289.14,5.91,6.44,14.91,6.51,15.21,6.51h0l0,5.84c-.47,0-11.85,0-19.57-8.39-6.85-7.46-222.86-273.2-235.74-289L743.69,742.83Z"/><path class="cls-7" d="M1210.87,1174.47c6.87,10.78,4,22.48,3.91,23l-5.67-1.43,2.84.71-2.84-.7c0-.1,2.31-9.81-3.16-18.41Z"/><path class="cls-7" d="M1212.85,1208.66l17.77,22,1.84,2.28,20.48,25.44a17.28,17.28,0,0,0,13.55,6.47,16.56,16.56,0,0,0,1.73-.08,17.32,17.32,0,0,0,8.8-3.48l.22-.18.13-.1a17.36,17.36,0,0,0,2.63-24.43l-19.29-23.95-2.35-2.92-18.44-22.89a17.3,17.3,0,0,0-13.54-6.49c-.29,0-.59,0-.88,0a17.46,17.46,0,0,0-10,3.78l0,0a7.08,7.08,0,0,0-.59.5,17.13,17.13,0,0,0-5.43,9.1v0a15.54,15.54,0,0,0-.35,2.06A17.3,17.3,0,0,0,1212.85,1208.66Zm2-11.68c0-.14,0-.31,0-.47,0-.33.09-.67.15-1a1.31,1.31,0,0,1,0-.15c0-.13.07-.23.1-.35a.12.12,0,0,1,0-.08v0a9.07,9.07,0,0,1,.26-.89,8.51,8.51,0,0,1,.67-1.59,2,2,0,0,1,.21-.38,7.49,7.49,0,0,1,.48-.81,11.58,11.58,0,0,1,1.43-1.71l0,0a7.6,7.6,0,0,1,.85-.75,11.51,11.51,0,0,1,16.21,1.74l40.1,49.78a11.55,11.55,0,0,1-1.76,16.22,11.54,11.54,0,0,1-16.21-1.76L1217.41,1205a11.18,11.18,0,0,1-1.1-1.64,8.69,8.69,0,0,1-.44-.86,8,8,0,0,1-.35-.85,11.69,11.69,0,0,1-.66-4.57S1214.88,1197,1214.88,1197Z"/><path class="cls-2" d="M1226.38,1186.22a11.48,11.48,0,0,1,9,4.3l40.08,49.77a11.53,11.53,0,0,1-1.75,16.21,11.51,11.51,0,0,1-16.21-1.74L1217.4,1205a11.53,11.53,0,0,1,9-18.76Z"/><polygon class="cls-7" points="766.65 1428.61 968.78 1267.13 971.09 1265.29 1022.01 1224.61 1024.29 1222.79 1070.05 1186.24 1074.61 1182.59 1113.11 1151.83 1115.39 1150.01 1156.3 1117.32 1160.86 1113.68 1242.28 1048.65 1245.04 1046.44 1245.58 1046.28 1247.43 1045.71 1251.26 1044.56 1269.48 1039.02 1273.5 1037.81 1279.58 1035.97 1355.12 1013.03 1358.14 1012.11 1358.15 1012.11 1449.74 984.3 1452.78 983.38 1474.24 976.88 1474.24 982.97 1283.64 1040.83 1277.56 1042.67 1273.54 1043.89 1255.32 1049.42 1251.49 1050.59 1247.81 1051.7 1246.02 1053.13 1164.56 1118.21 1160 1121.85 1078.19 1187.21 1073.63 1190.86 1000.62 1249.19 998.34 1251.01 908.34 1322.91 906.03 1324.76 776.03 1428.61 766.65 1428.61"/><polygon class="cls-7" points="886.88 829.02 931.78 998.23 1158.8 1291.26 1312.87 1391.22 1473.06 1395.35 1472.91 1401.19 1311.07 1397.02 1154.79 1295.62 1154.48 1295.23 926.43 1000.87 926.28 1000.3 881.23 830.52 886.88 829.02"/><polygon class="cls-7" points="743.69 930.17 743.69 924.24 898.64 896.08 904.39 895.04 963.35 884.33 971.76 882.8 1052.83 868.07 1056.19 867.46 1086.67 861.92 1093.27 860.72 1097.36 859.98 1117.19 856.38 1121.63 855.56 1128.25 854.37 1317.6 819.97 1320.49 819.45 1473.71 791.61 1474.77 797.37 1474.24 797.47 1322.8 824.97 1319.51 825.57 1219.93 843.66 1217.55 844.1 1132.55 859.52 1125.94 860.74 1121.48 861.54 1101.66 865.13 1097.57 865.88 1090.98 867.08 1032.75 877.66 1029.42 878.26 976.97 887.8 970.41 888.98 905.9 900.7 900.13 901.75 804 919.21 802.07 919.56 743.69 930.17"/><polygon class="cls-7" points="743.69 1339.95 743.69 1332.37 985.12 1132.46 987.38 1130.59 1011.48 1110.64 1013.65 1108.83 1017.38 1113.33 1015.06 1115.26 965.25 1156.51 963 1158.37 908.94 1203.13 906.66 1205 789.89 1301.7 787.64 1303.57 743.69 1339.95"/><polygon class="cls-7" points="1289.41 1041.97 1349.68 1024.25 1345.12 1109.72 1289.41 1041.97"/><rect class="cls-7" x="1286.89" y="818.54" width="2.92" height="221.62" transform="translate(-297.14 1028.08) rotate(-39.37)"/><polygon class="cls-7" points="1300.37 698.06 1303.34 698.06 1320.49 819.45 1320.94 822.7 1322.8 824.97 1396.28 914.52 1398.34 917.03 1452.78 983.38 1454.4 985.37 1452.13 987.23 1449.74 984.3 1395.18 917.81 1393.12 915.29 1319.51 825.57 1318.15 823.92 1317.6 819.97 1311.53 777.03 1309.6 763.34 1309.19 760.45 1300.37 698.06"/><rect class="cls-7" x="1209.55" y="927.52" width="268.62" height="2.92" transform="translate(-183.55 349.33) rotate(-13.87)"/><rect class="cls-7" x="1116.04" y="1042.79" width="107.27" height="2.92" transform="translate(-394.95 941.46) rotate(-38)"/><rect class="cls-7" x="1086.42" y="1002.96" width="107.27" height="2.92" transform="translate(-376.71 914.83) rotate(-38)"/><rect class="cls-7" x="1053.99" y="965.31" width="107.27" height="2.92" transform="translate(-360.4 886.83) rotate(-38)"/><polygon class="cls-7" points="1120.89 897.31 1122.34 899.85 1026.88 954.16 929.74 1000.87 928.47 998.24 1025.52 951.58 1120.89 897.31"/><rect class="cls-7" x="1048.93" y="867.46" width="2.92" height="66.2" transform="translate(-333.2 897.53) rotate(-40.48)"/><rect class="cls-7" x="1044.12" y="952.66" width="2.92" height="225.33" transform="translate(-436.63 888.66) rotate(-38.74)"/><rect class="cls-7" x="992.2" y="1143.33" width="2.92" height="94.54" transform="translate(-540.27 962.66) rotate(-41.7)"/><rect class="cls-7" x="937.14" y="1187.38" width="2.92" height="94.99" transform="translate(-598.28 1025.37) rotate(-45)"/><polygon class="cls-7" points="743.69 1402.63 743.69 1398.81 815.53 1337.67 817.76 1335.77 936.45 1234.8 937.66 1233.76 939.55 1235.99 938.52 1236.87 743.69 1402.63"/><polygon class="cls-7" points="743.69 1110.86 743.69 1107.02 795.47 1062.97 795.86 1062.63 797.76 1064.85 797.32 1065.23 743.69 1110.86"/><rect class="cls-7" x="800.78" y="1294.9" width="2.92" height="48.42" transform="translate(-653.94 806.09) rotate(-39.29)"/><rect class="cls-7" x="893.74" y="884.71" width="2.92" height="283.72" transform="translate(-453.72 837.73) rotate(-40.94)"/><polygon class="cls-7" points="743.69 1239.5 743.69 1235.66 787.83 1197.84 790.05 1195.94 802.19 1185.56 802.28 1185.48 802.28 1185.47 802.29 1185.45 825.04 1165.98 825.13 1165.92 857.55 1138.14 859.77 1136.24 933.57 1073.05 934.7 1072.09 936.61 1074.31 935.5 1075.26 826.78 1168.34 826.71 1168.42 800.16 1191.14 800.16 1191.15 800.09 1191.21 743.69 1239.5"/><polygon class="cls-7" points="743.69 1142.13 743.69 1137.43 790.05 1195.94 791 1197.14 788.7 1198.95 787.83 1197.84 743.69 1142.13"/><polygon class="cls-7" points="743.69 1000.27 743.69 995.7 859.77 1136.24 860.72 1137.4 858.47 1139.27 857.55 1138.14 797.32 1065.23 795.47 1062.97 743.69 1000.27"/><polygon class="cls-7" points="996.5 1248.76 998.75 1246.91 1000.62 1249.19 1080.44 1346.6 1081.16 1347.48 1082.83 1348.5 1213.48 1428.61 1207.89 1428.61 1080.25 1350.34 1079.21 1349.71 1079.06 1349.52 1078.06 1348.31 998.34 1251.01 996.5 1248.76"/><rect class="cls-7" x="949.86" y="1301.66" width="2.92" height="126.53" transform="translate(-695.9 1131.1) rotate(-47.04)"/><rect class="cls-7" x="1255.78" y="1209.75" width="72.68" height="2.92"/><polygon class="cls-7" points="966.55 1428.61 995.33 1407.89 997.74 1406.14 1078.06 1348.31 1080.44 1346.6 1153.53 1293.98 1155.94 1292.25 1158.16 1290.42 1230.62 1230.7 1232.85 1228.86 1234.72 1231.11 1232.46 1232.98 1160.45 1292.32 1157.72 1294.57 1155.56 1296.12 1082.83 1348.5 1080.25 1350.34 971.55 1428.61 966.55 1428.61"/><rect class="cls-7" x="1372.22" y="1275.2" width="100.77" height="2.92"/><polygon class="cls-7" points="1354.97 1174.63 1356.17 1174.34 1404.75 1162.7 1431.56 1156.29 1474.24 1146.06 1474.24 1149.06 1433.04 1158.93 1403.23 1166.07 1356.71 1177.21 1355.66 1177.46 1354.97 1174.63"/><path class="cls-7" d="M1247.68,1428.61c3.65-11.54,16.35-27.48,58.53-27.39,20.88,0,125.6,3.22,168,4.55v22.84Z"/><polygon class="cls-7" points="1148.84 1116.83 1023.09 960.92 1001.82 970.74 1133.44 1129.82 1148.84 1116.83"/><rect class="cls-7" x="1074.19" y="777.14" width="237.86" height="2.92" transform="matrix(0.99, -0.14, 0.14, 0.99, -98.5, 177.37)"/><polygon class="cls-7" points="905.48 698.06 909.35 698.06 1056.19 867.46 1057.84 869.37 1055.62 871.29 1052.83 868.07 1005.66 813.65 1003.43 811.07 959.75 760.7 959.4 760.29 905.48 698.06"/><rect class="cls-7" x="816.43" y="772.84" width="144.61" height="2.92" transform="translate(-121.69 167.32) rotate(-10.07)"/><rect class="cls-7" x="887.83" y="820.96" width="119.3" height="2.92" transform="translate(-128.56 177.26) rotate(-10.01)"/><polygon class="cls-7" points="1213.47 847.58 1138.43 860.73 1177.05 907.48 1213.47 849.52 1213.47 847.58"/><path class="cls-7" d="M796.84,1209.26a22.77,22.77,0,0,0,45.49,0c0-.38,0-.78,0-1.17v-2s-1.47-16.45-15.65-37.62c-.53-.81-1.08-1.62-1.67-2.44-1.68-2.4-3.52-4.84-5.55-7.32a96.94,96.94,0,0,0-17.2,26.79v0h0c-.82,2-1.52,3.86-2.12,5.66h0a63.75,63.75,0,0,0-3.3,15.64,3,3,0,0,0,0,.42c0,.5,0,.8,0,.88C796.81,1208.48,796.83,1208.88,796.84,1209.26Zm32.86-.15v.09c0,.35,0,.7-.06,1a10.2,10.2,0,0,1-20.32,0c0-.33-.06-.68-.06-1v-.09a6,6,0,0,1,.06-.95,10.22,10.22,0,0,1,20.32,0A6,6,0,0,1,829.7,1209.11Z"/><polygon class="cls-7" points="877.38 832.78 893.45 891.15 836.47 902.61 877.38 832.78"/><polygon class="cls-7" points="1298.74 1024.25 1280.93 1031.19 1226.58 964.22 1243.39 959.6 1298.74 1024.25"/><path class="cls-7" d="M861.07,693a21.63,21.63,0,0,0-21.63,21.62v2.11s1.84,20.64,21.73,45c21.52-24.2,21.52-46.38,21.52-47.11A21.61,21.61,0,0,0,861.07,693Zm.1,30.36a9.71,9.71,0,1,1,9.71-9.72A9.73,9.73,0,0,1,861.17,723.39Z"/><path class="cls-7" d="M995.72,957.21A22.77,22.77,0,0,0,973,980v2.27a47.64,47.64,0,0,0,1.17,6.12,95.27,95.27,0,0,0,9.69,23.68c.45.84,1,1.67,1.46,2.53a123.68,123.68,0,0,0,10.55,15,95.19,95.19,0,0,0,17.93-28.68c.54-1.34,1-2.66,1.41-3.91,3.32-9.94,3.32-16.6,3.32-17A22.76,22.76,0,0,0,995.72,957.21Zm.1,11.52A10.23,10.23,0,1,1,985.59,979,10.21,10.21,0,0,1,995.82,968.73Z"/><path class="cls-7" d="M842.33,1191.84a22.78,22.78,0,0,0-45.49,0c0,.38,0,.78,0,1.17v2.22s1.46,16.41,15.58,37.52c.52.81,1.08,1.61,1.65,2.43,1.71,2.42,3.58,4.91,5.64,7.43a96.85,96.85,0,0,0,17.3-27.07q1.23-3,2.1-5.65a61.87,61.87,0,0,0,3.23-15.58,3.1,3.1,0,0,0,0-.42c0-.5,0-.81,0-.88C842.36,1192.62,842.34,1192.22,842.33,1191.84Zm-32.86.06c0-.35,0-.7,0-1a10.23,10.23,0,0,1,20.33,0c0,.34.06.69.06,1v.09a7.46,7.46,0,0,1-.06,1,10.21,10.21,0,0,1-20.33,0,7.46,7.46,0,0,1,0-1Z"/><path class="cls-7" d="M1420.25,1212.22a22.76,22.76,0,0,0,22.78-22.76v-2.21s-1-11.82-10-28.31c-.47-.87-1-1.76-1.48-2.65a122,122,0,0,0-11.39-16.44,99.31,99.31,0,0,0-15.42,22.85c-.54,1.14-1,2.27-1.52,3.37-5.74,13.38-5.74,22.91-5.74,23.39A22.76,22.76,0,0,0,1420.25,1212.22Zm-.08-11.51a10.22,10.22,0,1,1,10.21-10.22A10.22,10.22,0,0,1,1420.17,1200.71Z"/><path class="cls-7" d="M993.65,1374.62a21.62,21.62,0,0,0,21.63-21.62v-2.1s-1.83-20.65-21.72-45C972,1330.09,972,1352.27,972,1353A21.63,21.63,0,0,0,993.65,1374.62Zm-.09-30.36a9.71,9.71,0,1,1-9.71,9.72A9.72,9.72,0,0,1,993.56,1344.26Z"/><path class="cls-7" d="M1268.6,1193.14a21.62,21.62,0,0,0,21.63-21.63v-2.08s-1.83-20.66-21.73-45c-21.52,24.2-21.52,46.38-21.52,47.09A21.61,21.61,0,0,0,1268.6,1193.14Zm-.1-30.35a9.71,9.71,0,1,1-9.7,9.7A9.71,9.71,0,0,1,1268.5,1162.79Z"/><path class="cls-7" d="M1402.24,788.18a21.64,21.64,0,0,0,21.62-21.63v-2.1s-1.84-20.65-21.73-45c-21.52,24.19-21.52,46.39-21.52,47.1A21.63,21.63,0,0,0,1402.24,788.18Zm-.11-30.35a9.71,9.71,0,1,1-9.71,9.7A9.7,9.7,0,0,1,1402.13,757.83Z"/></g><g class="cls-6"><polygon class="cls-7" points="531.4 1449.07 508.58 1449.07 491.02 1428 489.42 1426.1 486.34 1422.42 483.01 1418.41 376.55 1290.74 372.26 1285.58 224.26 1108.1 220.2 1103.24 158.88 1029.68 108.78 760.55 126.02 757.33 175.27 1021.97 238.42 1097.7 242.48 1102.57 392.08 1281.99 396.38 1287.15 531.4 1449.07"/><polygon class="cls-7" points="503.36 1449.07 495.76 1449.07 476.51 1425.97 474.77 1423.88 471.74 1420.24 470.47 1418.72 416.05 1353.42 413.86 1350.78 365.49 1292.76 361.2 1287.6 278.16 1187.97 276.07 1185.45 214.17 1111.16 210.1 1106.29 148.68 1032.58 148.55 1031.83 137.57 972.79 137.03 969.91 118.83 871.93 118.29 869.01 96.85 753.74 96.5 751.84 102.26 750.77 102.84 753.9 154.16 1030.02 216.18 1104.45 220.24 1109.32 367.8 1286.39 372.11 1291.56 478.35 1419.04 480.79 1421.98 483.84 1425.63 485.71 1427.88 503.36 1449.07"/><polygon class="cls-7" points="543.63 1449.07 536.03 1449.07 400.47 1286.4 396.18 1281.24 246.31 1101.41 242.25 1096.53 177.77 1019.16 177.64 1018.4 128.6 754.56 128.09 751.84 133.83 750.77 134.56 754.7 141.15 790.18 143.34 802 167.97 934.45 168.51 937.37 183.23 1016.59 247.73 1093.99 251.47 1098.47 281.39 1134.37 283.26 1136.64 313.17 1172.52 315.04 1174.76 344.96 1210.67 346.83 1212.92 374.16 1245.71 376.06 1247.99 402.76 1280.05 402.78 1280.05 407.08 1285.2 543.63 1449.07"/><path class="cls-7" d="M216.08,896.44l-5.26-2.55c1.86-3.83-.82-10.54-2.07-12.92l-72.57-87.64,4.5-3.73,72.94,88.08.13.24C214.36,879,219.65,889.08,216.08,896.44Z"/><path class="cls-7" d="M225.45,888.1c-1.9,0-9.55-.48-17.17-7.73l4-4.24c6.67,6.35,13.15,6.13,13.21,6.13l.37,5.83Z"/><path class="cls-7" d="M750.06,1411l-230.5-148.22-.29-.36c-2.29-2.81-229-281.75-235.81-289.14-5.91-6.43-14.91-6.5-15.2-6.5h0l-.05-5.85c.48,0,11.85,0,19.57,8.4,6.85,7.45,222.86,273.2,235.74,289L750.06,1404.3Z"/><path class="cls-7" d="M282.87,972.65c-6.87-10.77-4-22.47-3.91-23l5.67,1.42-2.83-.71,2.83.7c0,.1-2.31,9.81,3.17,18.41Z"/><path class="cls-7" d="M280.89,938.47l-17.76-22.05-1.84-2.28L240.8,888.7a17.28,17.28,0,0,0-13.54-6.47,16.61,16.61,0,0,0-1.74.09,17.32,17.32,0,0,0-8.8,3.48l-.22.17-.13.1a17.36,17.36,0,0,0-2.63,24.43l19.29,24,2.35,2.92,18.44,22.9a17.32,17.32,0,0,0,13.54,6.48l.88,0a17.45,17.45,0,0,0,10-3.79s0,0,0,0c.21-.16.4-.32.59-.49a17.1,17.1,0,0,0,5.43-9.11h0a14.07,14.07,0,0,0,.35-2.06A17.27,17.27,0,0,0,280.89,938.47Zm-2,11.67c0,.15,0,.31,0,.47,0,.34-.09.67-.15,1a1,1,0,0,1,0,.15c0,.13-.07.23-.1.35a.28.28,0,0,1,0,.09h0a8.36,8.36,0,0,1-.27.89,8.6,8.6,0,0,1-.67,1.6,2,2,0,0,1-.2.38c-.15.27-.31.54-.48.8a12.3,12.3,0,0,1-1.44,1.71s0,0,0,0a9.87,9.87,0,0,1-.84.74,11.53,11.53,0,0,1-16.22-1.73l-40.09-49.78A11.55,11.55,0,0,1,220,890.62a11.39,11.39,0,0,1,7.22-2.55,11.52,11.52,0,0,1,9,4.3l40.08,49.77a11,11,0,0,1,1.09,1.63c.16.28.31.57.44.86a8.93,8.93,0,0,1,.35.85,11.38,11.38,0,0,1,.66,4.57S278.86,950.1,278.86,950.14Z"/><path class="cls-2" d="M267.37,960.91a11.49,11.49,0,0,1-9-4.3l-40.09-49.77A11.55,11.55,0,0,1,220,890.62a11.53,11.53,0,0,1,16.21,1.75l40.09,49.77a11.53,11.53,0,0,1-9,18.77Z"/><polygon class="cls-7" points="727.09 718.51 524.96 879.99 522.65 881.84 471.73 922.51 469.45 924.34 423.69 960.88 419.13 964.53 380.63 995.29 378.35 997.12 337.44 1029.8 332.88 1033.44 251.47 1098.47 248.71 1100.68 248.17 1100.84 246.31 1101.41 242.48 1102.57 224.26 1108.1 220.24 1109.32 214.17 1111.16 138.63 1134.1 135.6 1135.02 135.59 1135.02 44.01 1162.82 40.97 1163.74 19.5 1170.24 19.5 1164.15 210.1 1106.29 216.18 1104.45 220.2 1103.24 238.42 1097.7 242.25 1096.53 245.93 1095.42 247.73 1093.99 329.18 1028.91 333.74 1025.27 415.55 959.92 420.11 956.26 493.12 897.94 495.4 896.11 585.4 824.21 587.71 822.37 717.71 718.51 727.09 718.51"/><polygon class="cls-7" points="606.86 1318.1 561.97 1148.89 334.94 855.87 180.88 755.9 20.68 751.78 20.83 745.93 182.67 750.1 338.95 851.51 339.26 851.9 567.31 1146.25 567.47 1146.82 612.51 1316.61 606.86 1318.1"/><polygon class="cls-7" points="750.06 1216.95 750.06 1222.89 595.11 1251.04 589.35 1252.08 530.39 1262.79 521.98 1264.32 440.92 1279.05 437.56 1279.67 407.08 1285.2 400.47 1286.4 396.38 1287.15 376.55 1290.74 372.11 1291.56 365.49 1292.76 176.15 1327.15 173.25 1327.68 20.03 1355.51 18.98 1349.76 19.5 1349.65 170.95 1322.15 174.23 1321.56 273.81 1303.47 276.19 1303.03 361.2 1287.6 367.8 1286.39 372.26 1285.58 392.08 1281.99 396.18 1281.24 402.76 1280.05 460.99 1269.47 464.32 1268.87 516.78 1259.33 523.34 1258.14 587.85 1246.42 593.62 1245.37 689.74 1227.91 691.67 1227.56 750.06 1216.95"/><polygon class="cls-7" points="750.06 807.17 750.06 814.76 508.62 1014.66 506.36 1016.53 482.26 1036.48 480.09 1038.29 476.36 1033.79 478.68 1031.86 528.5 990.62 530.75 988.76 584.81 943.99 587.08 942.12 703.86 845.42 706.11 843.55 750.06 807.17"/><polygon class="cls-7" points="204.33 1105.16 144.06 1122.88 148.63 1037.4 204.33 1105.16"/><rect class="cls-7" x="203.93" y="1106.96" width="2.92" height="221.62" transform="translate(-725.83 406.61) rotate(-39.37)"/><polygon class="cls-7" points="193.37 1449.07 190.41 1449.07 173.25 1327.68 172.8 1324.42 170.95 1322.15 97.47 1232.6 95.41 1230.09 40.97 1163.74 39.34 1161.76 41.61 1159.9 44.01 1162.82 98.56 1229.32 100.62 1231.83 174.23 1321.56 175.59 1323.21 176.15 1327.15 182.21 1370.1 184.14 1383.79 184.55 1386.68 193.37 1449.07"/><rect class="cls-7" x="15.58" y="1216.68" width="268.62" height="2.92" transform="translate(-287.71 71.48) rotate(-13.87)"/><rect class="cls-7" x="270.43" y="1101.41" width="107.27" height="2.92" transform="translate(-610.28 433.29) rotate(-38)"/><rect class="cls-7" x="300.05" y="1141.24" width="107.27" height="2.92" transform="translate(-628.55 460) rotate(-38)"/><rect class="cls-7" x="332.48" y="1178.89" width="107.27" height="2.92" transform="translate(-644.83 487.91) rotate(-38)"/><polygon class="cls-7" points="372.85 1249.82 371.41 1247.28 466.87 1192.96 564.01 1146.26 565.27 1148.89 468.22 1195.55 372.85 1249.82"/><rect class="cls-7" x="441.89" y="1213.46" width="2.92" height="66.2" transform="translate(-703.16 586.27) rotate(-40.48)"/><rect class="cls-7" x="446.7" y="969.14" width="2.92" height="225.33" transform="translate(-578.37 518.43) rotate(-38.74)"/><rect class="cls-7" x="498.62" y="909.26" width="2.92" height="94.54" transform="translate(-509.61 575.02) rotate(-41.7)"/><rect class="cls-7" x="553.68" y="864.76" width="2.92" height="94.99" transform="translate(-482.46 659.73) rotate(-45)"/><polygon class="cls-7" points="750.06 744.49 750.06 748.32 678.21 809.45 675.98 811.35 557.29 912.33 556.08 913.37 554.2 911.13 555.22 910.25 750.06 744.49"/><polygon class="cls-7" points="750.06 1036.26 750.06 1040.1 698.27 1084.15 697.88 1084.49 695.98 1082.27 696.42 1081.89 750.06 1036.26"/><rect class="cls-7" x="690.04" y="803.8" width="2.92" height="48.42" transform="translate(-368.01 624.98) rotate(-39.29)"/><rect class="cls-7" x="597.08" y="978.69" width="2.92" height="283.72" transform="translate(-587.87 666.33) rotate(-40.94)"/><polygon class="cls-7" points="750.06 907.62 750.06 911.47 705.92 949.28 703.7 951.18 691.55 961.57 691.47 961.64 691.47 961.66 691.45 961.67 668.7 981.15 668.61 981.21 636.19 1008.98 633.97 1010.88 560.17 1074.07 559.04 1075.04 557.13 1072.82 558.24 1071.87 666.96 978.78 667.04 978.71 693.58 955.99 693.58 955.97 693.66 955.91 750.06 907.62"/><polygon class="cls-7" points="750.06 1004.99 750.06 1009.7 703.7 951.18 702.75 949.98 705.04 948.17 705.92 949.28 750.06 1004.99"/><polygon class="cls-7" points="750.06 1146.85 750.06 1151.42 633.97 1010.88 633.02 1009.73 635.27 1007.86 636.19 1008.98 696.42 1081.89 698.27 1084.15 750.06 1146.85"/><polygon class="cls-7" points="497.24 898.36 494.99 900.22 493.12 897.94 413.3 800.52 412.58 799.65 410.92 798.63 280.27 718.51 285.85 718.51 413.49 796.78 414.53 797.41 414.69 797.6 415.68 798.82 495.4 896.11 497.24 898.36"/><rect class="cls-7" x="540.96" y="718.94" width="2.92" height="126.53" transform="translate(-399.68 646.18) rotate(-47.04)"/><rect class="cls-7" x="165.27" y="934.46" width="72.68" height="2.92"/><polygon class="cls-7" points="527.19 718.51 498.41 739.23 496 740.98 415.68 798.82 413.3 800.52 340.22 853.14 337.81 854.88 335.58 856.71 263.13 916.42 260.89 918.26 259.02 916.01 261.29 914.14 333.29 854.8 336.02 852.55 338.18 851.01 410.92 798.63 413.49 796.78 522.2 718.51 527.19 718.51"/><rect class="cls-7" x="20.76" y="869.01" width="100.77" height="2.92"/><polygon class="cls-7" points="138.77 972.5 137.57 972.79 88.99 984.42 62.18 990.83 19.5 1001.06 19.5 998.07 60.71 988.19 90.51 981.06 137.03 969.91 138.09 969.66 138.77 972.5"/><path class="cls-7" d="M246.06,718.51c-3.65,11.55-16.35,27.49-58.53,27.4-20.88,0-125.6-3.23-168-4.56V718.51Z"/><polygon class="cls-7" points="344.9 1030.29 470.66 1186.2 491.93 1176.38 360.31 1017.31 344.9 1030.29"/><rect class="cls-7" x="181.69" y="1367.07" width="237.86" height="2.92" transform="matrix(0.99, -0.14, 0.14, 0.99, -191.34, 56.58)"/><polygon class="cls-7" points="588.27 1449.07 584.4 1449.07 437.56 1279.67 435.9 1277.75 438.12 1275.84 440.92 1279.05 488.08 1333.48 490.32 1336.05 533.99 1386.43 534.34 1386.84 588.27 1449.07"/><rect class="cls-7" x="532.7" y="1371.36" width="144.61" height="2.92" transform="translate(-230.71 126.93) rotate(-10.07)"/><rect class="cls-7" x="486.61" y="1323.24" width="119.3" height="2.92" transform="translate(-222 115.15) rotate(-10.01)"/><polygon class="cls-7" points="280.28 1299.55 355.31 1286.4 316.69 1239.64 280.28 1297.6 280.28 1299.55"/><path class="cls-7" d="M696.9,937.87a22.76,22.76,0,0,0-45.48,0q0,.57,0,1.17v2s1.46,16.46,15.65,37.63c.52.8,1.08,1.62,1.66,2.44,1.68,2.39,3.52,4.83,5.55,7.32a96.82,96.82,0,0,0,17.2-26.8h0v0c.81-2,1.52-3.86,2.11-5.65v0a64.38,64.38,0,0,0,3.31-15.63c0-.15,0-.29,0-.43,0-.49,0-.8,0-.87Q696.93,938.44,696.9,937.87ZM664,938v-.09c0-.35,0-.7.06-1a10.2,10.2,0,0,1,20.32,0c0,.34.06.69.06,1V938a5.79,5.79,0,0,1-.06.94,10.22,10.22,0,0,1-20.32,0A7.19,7.19,0,0,1,664,938Z"/><polygon class="cls-7" points="616.37 1314.34 600.29 1255.97 657.28 1244.51 616.37 1314.34"/><polygon class="cls-7" points="195 1122.88 212.82 1115.93 267.16 1182.9 250.36 1187.53 195 1122.88"/><path class="cls-7" d="M555.13,1181.54a22.77,22.77,0,0,0-45.48,0c0,.38,0,.77,0,1.17v2.22s1.46,16.41,15.58,37.52c.52.8,1.08,1.61,1.65,2.43,1.71,2.42,3.58,4.91,5.64,7.43a97.08,97.08,0,0,0,17.3-27.07c.81-2,1.52-3.87,2.1-5.66a62.21,62.21,0,0,0,3.23-15.57c0-.15,0-.29,0-.43,0-.49,0-.8,0-.87Q555.16,1182.11,555.13,1181.54Zm-32.86.06c0-.35,0-.7.06-1a10.23,10.23,0,0,1,20.33,0c0,.34.06.69.06,1v.09a7.46,7.46,0,0,1-.06,1,10.21,10.21,0,0,1-20.33,0,7.46,7.46,0,0,1-.06-1Z"/><path class="cls-7" d="M73.49,934.9a22.77,22.77,0,0,0-22.78,22.77v2.2s1,11.82,10,28.32c.46.86.95,1.75,1.47,2.64a123,123,0,0,0,11.4,16.44A98.81,98.81,0,0,0,89,984.42c.54-1.14,1.05-2.26,1.52-3.36,5.74-13.38,5.74-22.91,5.74-23.39A22.76,22.76,0,0,0,73.49,934.9Zm.09,11.52a10.22,10.22,0,1,1-10.22,10.21A10.22,10.22,0,0,1,73.58,946.42Z"/><path class="cls-7" d="M500.18,802.86a9.71,9.71,0,1,1,9.71-9.71A9.7,9.7,0,0,1,500.18,802.86Z"/><path class="cls-7" d="M421.07,853.17a21.62,21.62,0,0,0-21.62,21.62v2.09s1.83,20.66,21.73,45c21.52-24.19,21.52-46.37,21.52-47.09A21.61,21.61,0,0,0,421.07,853.17Zm.11,30.35a9.71,9.71,0,1,1,9.7-9.71A9.71,9.71,0,0,1,421.18,883.52Z"/><path class="cls-7" d="M91.51,1359a21.63,21.63,0,0,0-21.63,21.62v2.1s1.84,20.65,21.73,45c21.52-24.2,21.52-46.39,21.52-47.11A21.61,21.61,0,0,0,91.51,1359Zm.1,30.34a9.71,9.71,0,1,1,9.71-9.7A9.7,9.7,0,0,1,91.61,1389.29Z"/></g></g></g></g></g></svg>