<svg xmlns="http://www.w3.org/2000/svg" viewBox="0 0 234.21 358.32"><defs><style>.cls-1{fill:#bcbec0;}.cls-2{fill:#424143;}.cls-3{fill:#1e7e9b;}</style></defs><title>logo_negro_vert</title><g id="Capa_2" data-name="Capa 2"><g id="Capa_1-2" data-name="Capa 1"><rect class="cls-1" width="233.97" height="233.97" rx="75.23"/><path class="cls-2" d="M47.35,52.4a14.51,14.51,0,0,0,.3,16.46l55.05,78.4a52.12,52.12,0,1,0,12.07-72.71,14.53,14.53,0,0,0,16.9,23.63,23.07,23.07,0,1,1-5.35,32.19L71.27,52a14.51,14.51,0,0,0-23.92.43Z"/><path class="cls-3" d="M47.61,181.57a14.51,14.51,0,0,1,.3-16.46L103,86.71A52.12,52.12,0,1,1,115,159.42a14.52,14.52,0,1,1,16.9-23.62,23.07,23.07,0,1,0-5.35-32.19l-55,78.4a14.52,14.52,0,0,1-23.92-.44Z"/><circle class="cls-2" cx="145.64" cy="116.81" r="15.89"/><path class="cls-2" d="M0,269.79A2.77,2.77,0,0,1,2.76,267H37.32a45.71,45.71,0,0,1,12.35,1.55,29.48,29.48,0,0,1,9.4,4.36,19.73,19.73,0,0,1,6,7,20.21,20.21,0,0,1,2.15,9.4q0,7.65-3,11.61a21.47,21.47,0,0,1-3.14,3.31,2.76,2.76,0,0,0,.53,4.61c.75.35,1.49.73,2.2,1.14a22.27,22.27,0,0,1,5.84,4.83,22.65,22.65,0,0,1,4,6.92,26.32,26.32,0,0,1,1.48,9.19q0,13.15-9.53,20.27t-26.72,7.12H2.76A2.77,2.77,0,0,1,0,355.56Zm35.44,30.94c2.69,0,4.65-.63,5.91-1.88a6.91,6.91,0,0,0,1.88-5.1,8,8,0,0,0-1.75-5.31c-1.16-1.38-3.09-2.08-5.77-2.08H26.39a2.76,2.76,0,0,0-2.76,2.77V298a2.76,2.76,0,0,0,2.76,2.77Zm3,38.26q7.13,0,9.74-2.82a10.64,10.64,0,0,0,2.61-7.52,10.2,10.2,0,0,0-2.68-7.45q-2.69-2.74-9.67-2.75h-12a2.75,2.75,0,0,0-2.76,2.76v15A2.76,2.76,0,0,0,26.39,339Z"/><path class="cls-2" d="M90.09,297.35h16.62a3.91,3.91,0,0,1,3.91,3.91v53.15a3.91,3.91,0,0,1-3.91,3.91H90.09a3.91,3.91,0,0,1-3.91-3.91V301.26A3.91,3.91,0,0,1,90.09,297.35Z"/><path class="cls-2" d="M147.61,358.32h-16.8A3.82,3.82,0,0,1,127,354.5V270.85a3.82,3.82,0,0,1,3.82-3.82h30.82A45.35,45.35,0,0,1,178,269.78a34.81,34.81,0,0,1,12,7.59,32.2,32.2,0,0,1,7.45,11.34,40.62,40.62,0,0,1,0,28.33A31.49,31.49,0,0,1,190,328.31a35.12,35.12,0,0,1-12,7.52,45.14,45.14,0,0,1-16.38,2.75h-6.39a3.82,3.82,0,0,0-3.81,3.82v12.1A3.82,3.82,0,0,1,147.61,358.32Zm12.81-40.41q8.19,0,11.61-4.16t3.43-10.87a21.57,21.57,0,0,0-.81-6.11A12.08,12.08,0,0,0,172,292a12.28,12.28,0,0,0-4.63-3.15,18.71,18.71,0,0,0-7-1.14h-5.18a3.81,3.81,0,0,0-3.81,3.81v22.57a3.82,3.82,0,0,0,3.81,3.82Z"/><circle class="cls-2" cx="98.37" cy="279.6" r="12.01"/><path class="cls-2" d="M213.68,297.35H230.3a3.91,3.91,0,0,1,3.91,3.91v53.15a3.91,3.91,0,0,1-3.91,3.91H213.68a3.9,3.9,0,0,1-3.9-3.91V301.26A3.9,3.9,0,0,1,213.68,297.35Z"/><circle class="cls-2" cx="221.97" cy="279.6" r="12.01"/></g></g></svg>